<?xml version="1.0" encoding="utf-8"?>
<!-- Generator: Adobe Illustrator 24.2.3, SVG Export Plug-In . SVG Version: 6.00 Build 0)  -->
<svg version="1.1" id="Layer_1" xmlns="http://www.w3.org/2000/svg" xmlns:xlink="http://www.w3.org/1999/xlink" x="0px" y="0px"
	 viewBox="0 0 24 24" style="enable-background:new 0 0 24 24;" xml:space="preserve">
<style type="text/css">
	.st0{fill:none;}
	.st1{stroke:#000000;stroke-width:2;stroke-miterlimit:10;}
	.st2{stroke:#000000;stroke-width:0.5;stroke-miterlimit:10;}
	.st3{fill:#231F20;}
</style>
<g id="OtXdlY_1_">
	<g>
		<path d="M307.7-199.6c1.7,0,3.2-0.1,4.7,0.1c0.5,0.1,1,0.8,1.3,1.3c4,8,8,16,11.9,24.1c8,16.3,16,32.5,24,48.8
			c0.3,0.6,0.6,1.1,1.1,2.1c1-2.3,1.8-4.3,2.7-6.2c9.4-22.1,18.8-44.2,28.2-66.3c0.7-1.6,1.1-2.8-0.8-3.8c3.5,0,7,0,10.9,0
			c-2.8,1.7-2.8,4.2-2.8,6.8c0,25,0,49.9,0,74.9c0,1.4,0,2.8,0.2,4.2c0.5,2.8,1.1,5.5,3.7,7.6c-4.6,0-8.8,0-13.3,0
			c3.7-3.6,3.8-8.1,3.8-12.7c0-24.5,0-49,0-73.5c0-0.7,0-1.3,0-2c-0.1,0-0.3-0.1-0.4-0.1c-11.3,26.3-22.6,52.6-34.1,79.2
			c-12-24.6-23.9-48.9-35.7-73.3c-0.1,0-0.2,0-0.4,0.1c0,11.3,0,22.7,0,34.1c-1.7-0.1-1.8-1-1.8-2.1c0-11.1-0.1-22.1,0-33.2
			c0-2.3-0.4-4.4-1.5-6.4C308.8-197.2,308.4-198.3,307.7-199.6z"/>
		<path d="M333.7-160.8c0-0.6-0.2-1.3,0-1.8c3.8-9.7,1.7-18.7-3.8-27.1c-5.5-8.6-13.3-14.5-22.4-18.8c-0.2-0.1-0.4-0.1-0.8-0.2
			c-0.4,2-0.9,4-1.1,6c-1.1,8.1-2.5,16.3-3.2,24.4c-0.6,6.6,0.2,13.3,3.4,19.3c3.9,7.3,12.6,9.8,19.9,5.8c0.7-0.4,1.4-0.8,2.1-1.2
			c0.1,0.1,0.3,0.2,0.4,0.3c-0.3,0.4-0.6,0.9-1,1.1c-4.1,2.5-8.5,3.2-13.1,2.6c-9.4-1.2-14.4-7.7-16.2-16.8
			c-1.3-6.7-1-13.5,0.2-20.2c1.2-7.1,2.6-14.1,4-21.1c0.3-1.4,0.1-2.2-1.4-2.7c-3.8-1.1-7.5-2.4-11.3-3.5c-0.6-0.2-1.6,0.1-2,0.5
			c-11.2,12.9-22.4,25.8-33.5,38.6c-0.2,0.2-0.3,0.4-0.8,1.1c2.8,0.9,5.4,1.8,8.1,2.4c6.5,1.4,12.5,0,17.5-4.6
			c2.2-2,3.4-4.6,3.2-7.6c-0.1-0.8-0.9-1.6-1.4-2.4c-0.3-0.4-0.6-0.7-1-1.1c0.4-0.4,0.8-0.9,1.3-1.1c3.3-0.9,6.5,1.9,6.2,5.2
			c-0.3,2.8-1.6,5.1-3.7,6.9c-7.9,6.9-16.8,8.3-26.6,4.8c-1.4-0.5-2.8-1.1-4.3-1.8c-2.9,3.4-5.8,6.9-8.7,10.4
			c-1.2,1.4-2.3,2.9-3.3,4.4c-2.1,3.1-1.6,5,1.7,6.9c0.2,0.1,0.3,0.2,0.7,0.5c-4.9,0-9.6,0-14.7,0c6.2-1.7,9.3-6.5,13-10.7
			c3.3-3.8,6.6-7.7,9.9-11.5c0.2-0.2,0.3-0.4,0.4-0.6c-1.9-1.7-3.8-3.1-5.6-4.9c-8.7-8.6-8.8-20.5-0.2-29.2
			c6.7-6.7,15.1-9.5,24.4-10c5.4-0.3,10.8,0.3,16.1,1.5c1.2,0.3,2,0.1,2.8-0.8c7.7-8.1,15-16.4,21.6-25.4c0.6-0.8,1-1.8,1.7-2.5
			c0.6-0.5,1.5-0.6,2.3-0.9c0,0.7,0.2,1.4,0.1,2c-2.3,10.7-4.6,21.5-7,32.2c-0.3,1.5,0,2.1,1.4,2.8c8.5,4.1,16,9.5,21.5,17.3
			c4.4,6.3,7.1,13.3,6.9,21.2c-0.1,3.6-1,7-2.9,10.1C334.1-160.8,333.9-160.8,333.7-160.8z M286.8-215.5c-3-0.5-5.5-0.9-8-1.3
			c-8.6-1.1-16.9-0.4-24.7,3.6c-6,3-10.6,7.3-12.8,13.8c-2.9,8.4,0.7,17.3,8.8,22.8c1.4,1,2.2,0.9,3.4-0.4
			c8.3-9.7,16.6-19.3,25-28.9C281.1-208.9,283.8-212,286.8-215.5z M289.1-216c4.7,1.3,9.1,2.6,13.7,3.9c2.4-9.2,4.8-18.4,7.2-27.5
			c-0.1-0.1-0.2-0.1-0.3-0.2C302.8-231.9,296-224,289.1-216z"/>
		<path d="M313.8-106.3c-1.3,0-2.9,0-4.6,0c1.6-7.1,1.6-14.2,1.6-21.4c0-7.1,0-14.2,0-21.3c1.7-0.4,1.7,0.7,1.7,1.7
			c0,8.3-0.1,16.6,0.1,24.8C312.7-117.1,313.4-111.8,313.8-106.3z"/>
	</g>
</g>
<path d="M55.6-197.9c0-0.9,0.1-1.4,0.1-2c0-7.7,0-15.4,0-23.1c0-0.8-0.3-1.4-0.8-2c-1.5-1.6-3.2-2.5-5.4-2.7c-0.5,0-1.1,0.1-1.2-1
	c4.4-0.1,8.8-0.1,13.3-0.1c10.3,26.5,20.5,52.9,30.9,79.7c0.4-0.9,0.6-1.4,0.8-2c7.3-20.7,14.6-41.5,21.9-62.2
	c1.4-3.8,2.7-7.7,4.1-11.5c0.6-1.6,0.3-2.1-1.2-2.7c-0.4-0.1-0.8-0.1-1.2-0.3c-0.2-0.1-0.3-0.4-0.6-0.9c5.5-0.1,10.7-0.1,15.8-0.1
	c0.3,0.6,0.3,1-0.3,1c-2.5,0.2-3.4,1.9-3.9,4c-0.2,0.9-0.2,1.9-0.3,2.8c0,19.8-0.1,39.7,0,59.5c0,7.6,1.1,15.1,4,22.2
	c1.4,3.5,3.3,6.7,6,9.3c2.5,2.4,5.4,4.1,8.8,4.6c4.4,0.7,8.4-0.3,12.1-2.7c5.6-3.6,9.1-8.8,10.4-15.2c2.8-13.3-1-24.6-11.1-33.7
	c-6.9-6.1-15-9.4-24.2-10.1c-0.8-0.1-1.6-0.1-2.3-0.2c-0.2-0.8,0.2-0.9,0.6-0.9c1.2,0,2.4,0.1,3.6,0.2c9,1.2,17,4.6,23.6,10.8
	c7.4,6.9,11.2,15.4,11.5,25.6c0.1,5.3-0.8,10.4-3.2,15.2c-3.3,6.4-8.3,10.9-15.3,12.7c-7.3,1.9-13.8,0-19.3-5
	c-4.3-3.8-6.9-8.7-8.7-14.1c-1.6-4.8-2.6-9.8-2.8-14.9c-0.2-9.1-0.3-18.2-0.3-27.3c0-11.9,0-23.9,0-35.8c0-1.4,0-2.8-0.8-4.4
	c-1.1,3-2,5.8-3,8.6c-1,2.8-2,5.7-3,8.5c-1,2.9-2,5.8-3.1,8.7c-1,2.8-2,5.7-3,8.5c-1,2.8-2,5.7-3,8.5c-1,2.8-2,5.7-3,8.5
	c-1,2.8-2,5.7-3,8.5c-1,2.9-2,5.8-3.1,8.7c-1,2.8-2,5.7-3,8.5c-1,2.8-1.8,5.7-3.1,8.4c-0.9-0.1-0.9-0.8-1.1-1.2
	c-1.7-4.3-3.4-8.6-5-12.9c-8.4-21.6-16.7-43.2-25.1-64.7c-0.5-1.2-1.1-2.4-1.6-3.7c-0.1,0-0.2,0.1-0.3,0.1c0,0.6,0,1.2,0,1.9
	c0,7.9,0,15.8,0,23.7c0,1,0.2,2,0.6,2.9c5.8,15.2,11.6,30.4,17.5,45.5c0.6,1.7,1.6,3.3,2.5,4.8c0.9,1.4,2.2,2.3,3.9,2.7
	c0.5,0.1,0.9,0.2,0.7,0.9c-5.1,0-10.3,0-15.8,0c0.4-0.4,0.5-0.8,0.8-0.8c2-0.8,2.4-1.5,2.1-3.5c-0.1-0.7-0.3-1.4-0.5-2
	c-3.2-8.6-6.9-17-12.1-24.6c-3.2-4.7-7-8.9-11.6-12.2c-4.7-3.4-10.9-6.1-16-6.8c-0.2,0.6-0.4,1.1-0.7,1.7
	c-5.2,13.4-10.3,26.7-15.5,40.1c-0.4,0.9-0.7,1.9-0.8,2.9c-0.2,2.4,0.7,3.7,3,4.3c0.4,0.1,1,0.1,0.8,0.9c-0.1,0-0.3,0.1-0.5,0.1
	c-4.2,0-8.4,0.1-12.5-0.1c-7-0.3-12.4-3.6-15.9-9.7c-1.8-3.2-2.8-6.7-2.9-10.4c-0.5-12,6.2-22.8,17.5-28c5.7-2.6,11.8-3.7,18-3.7
	c2.9,0,5.8,0.3,8.9,0.4c0.1-0.3,0.4-0.7,0.5-1.1c4.5-11.8,9.1-23.7,13.6-35.5c0.2-0.5,0.1-1.2,0.9-1.2c0.7,0,0.7,0.8,0.9,1.2
	c2.8,7.3,5.6,14.6,8.5,22c0.9,2.3,1.7,4.5,2.6,6.8C55.2-198.5,55.4-198.4,55.6-197.9z M27.8-189.7c-0.4-0.1-0.5-0.2-0.6-0.2
	c-5.5-0.7-11-0.8-16.5,0.3c-6.5,1.2-12.4,3.7-17.1,8.4c-7.3,7.2-10.4,15.9-8.2,26c1.9,8.9,9,14.6,17.8,14.9c2.6,0.1,4.6-0.9,6.2-2.8
	c1.1-1.4,1.9-3,2.5-4.6c4.9-12.8,9.8-25.6,14.7-38.3C26.9-187.3,27.4-188.5,27.8-189.7z M60.9-165.1c0.1,0,0.2-0.1,0.3-0.1
	c-6.9-18-13.9-36-20.9-54.3c-3.8,9.9-7.4,19.4-11.1,28.9c0.8,0.2,1.4,0.4,2,0.5c6.2,1.5,11.7,4.3,16.5,8.4
	c4.9,4.2,8.8,9.2,12.1,14.8C60.1-166.3,60.5-165.7,60.9-165.1z"/>
<g>
	<path d="M-138.4-228c0,17.6,0,35.2,0,52.9c-0.2,0-0.4,0-0.6,0.1c-0.2-1.2-0.5-2.4-0.5-3.5c0-17-0.1-34,0-51c0-3-1.4-5.3-2.8-7.6
		c-0.4-0.7-1.7-1-2.7-1.4c-0.7-0.2-1.5-0.2-2.3-0.2c0-0.2,0-0.4,0-0.6c5.1,0,10.2,0,15.7,0c-0.7,0.3-1,0.6-1.3,0.7
		c-2.8,0.5-3.1,0.7-1.9,3.4c4,9.3,8,18.6,12,27.9c7.3,16.7,14.6,33.3,21.8,50c0.2,0.5,0.4,0.9,0.8,1.6c3.4-8,6.7-15.8,10-23.6
		c7.1-16.7,14.1-33.3,21.2-50c0.7-1.7,1.4-3.5,2-5.2c1-2.8,0.3-3.9-2.6-4.3c-0.6-0.1-1.3-0.1-1.9-0.6c5.2,0,10.5,0,15.7,0
		c-2.1,0.8-5.1,0.7-4.7,4.7c1.6-0.5,3.1-0.9,4.8-1.4c-0.1,2.2-1.6,2.7-2.9,3.2c-1.7,0.6-2,1.7-2,3.3c0,30.6-0.1,61.1-0.2,91.7
		c0,4.2,0,4.2,5,5.7c-5.3,0-10.5,0-15.9,0c0.1-0.2,0.2-0.4,0.3-0.4c5-0.1,4.9-2.1,4.9-6.1c0-28.5,0-57.1,0-85.6c0-1.8,0-3.7,0-5.5
		c-0.3-0.1-0.5-0.1-0.8-0.2c-0.3,0.7-0.7,1.3-1,2c-10.8,25.3-21.6,50.7-32.5,76c-0.3,0.8-1.3,1.8-1.8,1.8c-0.8-0.1-1.8-0.9-2.1-1.7
		c-7.1-16-14.1-32-21.2-48.1c-4.1-9.3-8.2-18.7-12.3-28C-138.1-228-138.2-228-138.4-228z"/>
	<path d="M-140-148.8c0.1,0.7,0.5,1.5,0.4,2.1c-2.1,10.7-6.1,20.5-15.1,27.4c-10.6,8.1-22.4,9.4-34.4,3.6
		c-11.6-5.6-17.4-15.3-17.5-28.2c-0.1-15.5,7.4-27.1,19.5-36c8.8-6.4,18.7-10.2,29.3-12.1c0.4-0.1,0.8-0.2,1.6-0.4
		c-6.2-14-12.4-27.8-18.8-42c-3,6.9-5.7,13.3-8.5,19.8c-11,25.8-22,51.5-33,77.3c-0.1,0.3-0.3,0.7-0.4,1c-1,2.7-0.6,3.3,2.2,3.5
		c0.6,0,1.2,0.1,1.8,0.7c-4.2,0-8.3,0-12.5,0c0-0.1,0-0.3-0.1-0.4c0.6-0.1,1.2-0.3,1.8-0.2c2.8,0.3,4.4-1.2,5.5-3.6
		c3.2-7.6,6.5-15.2,9.7-22.8c10.2-23.8,20.4-47.7,30.6-71.5c1-2.4,2-4.8,3.1-7.2c0.3-0.7,1.3-1.5,2-1.5c0.7,0,1.7,0.8,2,1.5
		c6.1,13.5,12.2,27,18.2,40.6c0,0.1,0.1,0.1,0.1,0.2c0.9,2.7,2.1,5.1,5.8,4.1c0.2-0.1,0.4,0,0.7,0.1c0.1,0,0.2,0.2,0.7,0.7
		c-1.1,0.2-1.8,0.4-2.6,0.4c-14.8,0.8-28.4,5-40.2,14.1c-10.9,8.4-17.2,19.3-17.4,33.3c-0.2,13.7,7.6,25,20,29.3
		c12.8,4.4,26.7,0.4,35.1-10.1c5.2-6.6,8.1-14.2,9.5-22.4c0.1-0.3,0.1-0.7,0.2-1C-140.4-148.8-140.2-148.8-140-148.8z"/>
</g>
<g>
	<path class="st0" d="M49.5-439c-2.7,4.9-5.3,9.8-7.9,14.7c-2.6,4.9-5,9.8-7.3,14.7c-2.3,4.9-4.3,9.6-6.1,14c-2,5-3.7,9.6-4.9,13.9
		c-1.2,4.3-2,8.1-2.5,11.4c-0.2,3.2,0,5.9,0.8,8.2c0.7,2.2,2.1,3.7,4.2,4.3c0.6,0.2,1,0.3,1.3,0.4c0.3,0.1,0.7,0.2,1.1,0.4
		c3.4,0.2,6-0.9,7.7-3.2c1.7-2.3,3.2-5.3,4.6-9c1.4-2.9,3-6,4.8-9.4c1.8-3.3,4.2-6.5,7.3-9.4c3-3,6.9-5.5,11.7-7.7
		c3.6-1.6,8-2.9,13.1-3.6v-11.5h0.1l-20-42.4C54.9-448.6,52.2-443.9,49.5-439z"/>
	<path d="M64.3-395.7c-4.8,2.2-8.7,4.8-11.7,7.7c-3,3-5.4,6.1-7.3,9.4c-1.8,3.3-3.4,6.4-4.8,9.4c-1.4,3.6-2.9,6.6-4.6,9
		c-1.7,2.3-4.3,3.4-7.7,3.2c-0.5-0.2-0.8-0.3-1.1-0.4c-0.3-0.1-0.7-0.2-1.3-0.4c-2-0.6-3.4-2.1-4.2-4.3c-0.7-2.2-1-5-0.8-8.2
		c0.5-3.3,1.3-7.1,2.5-11.4c1.2-4.3,2.8-8.9,4.9-13.9c1.8-4.5,3.9-9.1,6.1-14c2.3-4.9,4.7-9.8,7.3-14.7c2.6-4.9,5.2-9.8,7.9-14.7
		c2.7-4.9,5.3-9.6,7.9-14.2l20,42.4h14.1l0.2,0.5l-26.2-56.4h-1.2c-3.3,5-6.7,10.4-10.1,16.4c-3.4,5.9-6.8,12-10.1,18.2
		c-3.3,6.2-6.4,12.4-9.4,18.5c-3,6.2-5.6,12.1-7.9,17.7c-2,5-3.7,9.6-4.9,14c-1.2,4.3-2,8.2-2.5,11.6c-0.9,7.2,1,11.7,5.6,13.6
		c0.6,0.5,1,0.8,1.4,0.9c0.3,0.1,0.8,0.1,1.4,0.2c1.9,0.1,3.6-0.2,5-0.9c1.4-0.7,2.6-1.6,3.6-2.7c1-1.1,2-2.5,2.8-4.2
		c0.9-1.7,1.7-3.5,2.5-5.5c1.4-2.8,2.9-5.8,4.6-9.1s4.1-6.3,7.1-9.2c3-2.9,6.9-5.4,11.5-7.5c3.4-1.5,7.5-2.7,12.2-3.4v-1.2
		C72.3-398.5,67.9-397.3,64.3-395.7z"/>
	<polygon points="102.4,-356.5 102.8,-356.5 93.3,-376.4 	"/>
	<path d="M78.4-399.4v1.2c1.4-0.2,2.8-0.4,4.3-0.5l-0.5-1.1C80.9-399.7,79.7-399.6,78.4-399.4z"/>
	<path d="M77.4-300.7h1v-97.5c-0.3,0-0.7,0.1-1,0.2V-300.7z"/>
	<path d="M82.7-398.7l0.5,1.1l10.1,21.2l-10.2-22.4C83-398.8,82.8-398.8,82.7-398.7z"/>
	<path d="M164.9-407.2c-4.7,2.4-8.8,5.6-12.4,9.7c-3.6,4.1-6.6,8.9-9.1,14.3c-2.5,5.5-4.6,11.2-6.3,17.3c-1.7,6.1-3.1,12.3-4.1,18.7
		c-1,6.4-1.8,12.5-2.4,18.5l-38.7-81.6l24.9,53.7h-14l26.6,55.8h1.7c0-4.8,0.1-10.4,0.3-16.8c0.2-6.4,0.8-13.2,1.6-20.4
		c0.9-7.2,2.1-14.4,3.7-21.7c1.6-7.3,3.8-14.1,6.5-20.3c2.7-6.3,6.1-11.8,10.2-16.6c4-4.8,8.9-8.3,14.6-10.4v106.3h13v-110
		C174.9-410.7,169.5-409.6,164.9-407.2z"/>
	<path d="M77.4-399.3v1.2c0.3-0.1,0.7-0.1,1-0.2v-1.2C78.1-399.4,77.7-399.3,77.4-399.3z"/>
	<path d="M91.8-410.2l-0.2-0.5H77.5l5.1,10.9c-0.1,0-0.3,0-0.4,0l0.5,1.1c0.1,0,0.3,0,0.4,0l10.2,22.4l9.5,19.9h14L91.8-410.2z"/>
</g>
<g>
	<path class="st0" d="M-123-455c-0.5-1.7-1.8-2.6-3.8-2.6c-4.4,0-8.4,0.8-12.1,2.5c-3.7,1.7-7,3.9-9.8,6.8c-2.9,2.9-5.2,6.1-7.1,9.9
		c-1.8,3.6-3.2,7.3-4.1,11.1c1.3-0.1,2.6-0.1,3.9-0.1c7,0,13.4,1.3,19,3.9c5.4,2.5,10.3,5.9,14.7,10V-450
		C-122.3-451.6-122.5-453.3-123-455z"/>
	<path d="M-159.9-427.3c0.9-3.8,2.2-7.5,4.1-11.1c1.9-3.7,4.3-7,7.1-9.9c2.9-2.9,6.1-5.1,9.8-6.8c3.7-1.7,7.7-2.5,12.1-2.5
		c2,0,3.3,0.9,3.8,2.6c0.5,1.7,0.8,3.4,0.8,4.9v36.6c0.2,0.2,0.4,0.3,0.6,0.5c2.6,2.5,5,5.3,7.3,8.3v-54.8h-7
		c-11.2,0-20.7,2.8-28.7,8.3c-7.9,5.5-13.5,13.7-16.8,24.6c-8.4,1.1-15.8,4.5-22.3,10.2l2.2,0.2c2.7-2.5,5.7-4.4,9.1-5.9
		c2-0.8,4-1.5,6-2l-0.4-1C-168.1-426.2-163.9-427-159.9-427.3z"/>
	<path d="M-140.2-421.5c-5.4-2.9-11.3-4.3-17.5-4.3c-3.2,0-6.5,0.3-9.7,0.9c-1.3,4.8-2,9.8-2,14.9c0,5.9,0.6,11.8,1.8,17.6
		c1.2,5.8,1.8,11.7,1.8,17.6c0,3.2-0.3,6.5-0.8,9.7c-0.5,3.2-1.4,6.3-2.8,9.1c-1.3,2.9-3.1,5.4-5.3,7.6c-2.2,2.2-4.9,4-8.3,5.2
		l0.7,1.5c4.4-1.6,8-3.9,10.8-7c2.9-3.1,5.1-6.7,6.8-10.6c1.7-3.9,2.9-8.1,3.6-12.5c0.7-4.4,1.1-8.7,1.1-12.8c0-4.4-0.2-8.7-0.7-13
		c-0.4-4.3-0.7-8.6-0.7-13c0-2.5,0.1-4.9,0.2-7.3c0.1-2.4,0.4-4.8,0.8-7.1c3.6,0,7.2,0.4,11,1.3c3.7,0.8,7.3,2.1,10.7,3.8
		c3.4,1.7,6.5,3.8,9.2,6.4c1.3,1.2,2.4,2.5,3.4,3.9v-0.5C-130-414.8-134.8-418.6-140.2-421.5z"/>
	<path d="M-124.7-407.6c0.6,1,1.2,2.1,1.7,3.2c0.4,0.9,0.7,2,0.7,3.2v74.3h7.9v-65c-3.2-6.5-6.6-12-10.3-16.7V-407.6z"/>
	<path d="M-33.8-299.8c-1.2,0.2-2.5,0.4-3.8,0.4c-1.3,0.1-2.5,0.1-3.8,0.1c-5.8,0-11-1.4-15.4-4.2c-4.5-2.8-8.4-6.3-11.8-10.6
		c-3.4-4.2-6.3-8.9-8.8-14.1c-2.5-5.1-4.6-10-6.5-14.6l29-66.6v77.6h8v-82.2h-7.5l-30.2,69.4c-2.2-5.3-4.6-11-7-17.1
		c-2.5-6.1-5.2-12.3-8.1-18.4c-3-6.1-6.2-12.1-9.8-17.8c-1.5-2.4-3.1-4.7-4.8-6.9v12.7c0.4,0.8,0.8,1.6,1.1,2.4
		c3.5,7.5,6.9,15.3,10.3,23.6c3.4,8.2,7,16.4,10.8,24.5c3.8,8.1,8.1,15.4,13,21.9c4.9,6.5,10.4,11.7,16.7,15.8c6.3,4,13.5,6,21.8,6
		c1.2,0,2.4,0,3.5-0.1c1.1-0.1,2.3-0.1,3.5-0.3L-33.8-299.8z"/>
	<path d="M-156-427.4c-1.3,0-2.6,0-3.9,0.1c0,0.2-0.1,0.4-0.1,0.5c3.7,0,7.4,0.4,11.1,1.3c3.7,0.9,7.2,2.2,10.6,3.9
		c3.4,1.7,6.4,3.9,9.2,6.4c2.8,2.5,5.1,5.4,6.9,8.8v-7.2c-4.4-4.2-9.3-7.5-14.7-10C-142.6-426.1-149-427.4-156-427.4z"/>
	<path d="M-171.8-424l0.1,0.1c1.5-0.4,2.9-0.7,4.4-0.9c0,0,0,0,0,0C-168.9-424.7-170.4-424.4-171.8-424z"/>
	<path d="M-121.7-412.9c-0.2-0.2-0.4-0.3-0.6-0.5v7.2c-1.8-3.4-4.1-6.3-6.9-8.8c-2.8-2.5-5.9-4.6-9.2-6.4c-3.4-1.7-6.9-3-10.6-3.9
		c-3.7-0.9-7.4-1.3-11.1-1.3c0-0.2,0.1-0.4,0.1-0.5c-4,0.3-8.2,1-12.4,2.2l0.4,1c1.5-0.4,3-0.7,4.5-0.8c0,0,0,0,0,0
		c3.2-0.6,6.5-0.9,9.7-0.9c6.3,0,12.1,1.4,17.5,4.3c5.4,2.9,10.1,6.6,14.2,11.3v0.5c0.5,0.6,0.9,1.3,1.3,2v-1
		c3.7,4.7,7.1,10.3,10.3,16.7v-12.7C-116.7-407.6-119.1-410.4-121.7-412.9z"/>
</g>
<g>
	<g>
		<path d="M262.9-350.4c0,4.5-0.4,9.1-1.2,13.9c-0.8,4.8-2.1,9.3-3.9,13.6c-1.8,4.2-4.3,8.1-7.4,11.5c-3.1,3.4-7,5.9-11.7,7.6
			l-0.7-1.6c3.6-1.3,6.6-3.2,9-5.6c2.4-2.4,4.3-5.2,5.7-8.3c1.5-3.1,2.5-6.4,3-9.9c0.5-3.5,0.8-7,0.8-10.6c0-6.4-0.6-12.8-1.9-19.1
			c-1.3-6.3-1.9-12.7-1.9-19.1c0-5.6,0.7-11,2.2-16.2c-3.9,0.5-7.7,1.5-11.4,3.1c-3.7,1.6-7,3.7-9.9,6.4l-2.4-0.2
			c7-6.2,15.1-9.9,24.2-11.1c3.5-11.8,9.6-20.7,18.2-26.7c8.6-6,19-9,31.1-9h7.6v89.2h-8.6v-26c0-1.3-0.2-2.5-0.7-3.5
			c-1.7-3.8-4-7-7-9.8c-3-2.8-6.3-5.1-10-6.9c-3.7-1.8-7.6-3.2-11.6-4.1c-4.1-0.9-8-1.4-11.9-1.4c-0.5,2.5-0.8,5.1-0.9,7.7
			c-0.1,2.6-0.2,5.2-0.2,7.9c0,4.7,0.2,9.4,0.7,14.1C262.7-359.8,262.9-355.1,262.9-350.4z M262.9-396.2c4,0,8,0.5,12,1.5
			c4,1,7.8,2.4,11.5,4.3c3.6,1.9,7,4.2,10,6.9c3,2.7,5.5,5.9,7.5,9.6v-47.5c0-1.7-0.3-3.5-0.8-5.4c-0.5-1.9-1.9-2.8-4.1-2.8
			c-4.7,0-9.1,0.9-13.1,2.7c-4,1.8-7.6,4.3-10.6,7.4c-3.1,3.1-5.7,6.7-7.7,10.7C265.4-404.8,263.9-400.6,262.9-396.2z"/>
	</g>
	<g>
		<path d="M310.4-342.6v-89.2h8l37.5,76.6l32.6-76.6h7.8v89.2h-8.6v-83.7l-35.5,83.5l-40.4-83v83.2H310.4z"/>
	</g>
</g>
<g>
	<path class="st0" d="M542.4-395.8l-8.4,23.1c-3.4,9.1-5.2,17.2-5.2,23.4c-0.2,16.2,13.3,29.6,29.3,29.6c12.4,0,22.7-7.6,27.4-17.9
		l-21.7-58.2H542.4z"/>
	<path class="st0" d="M554.1-421.4c-0.3-1-0.9-1.9-1.2-2.8l-10.2,27.7h20.7L554.1-421.4z"/>
	<path class="st0" d="M674.1-424.2L655-372.7c-3.4,9.1-5.2,17.2-5.2,23.4c-0.2,16.2,13.3,29.6,29.3,29.6c12.4,0,22.7-7.6,27.5-17.9
		l-31.5-83.8L674.1-424.2z"/>
	<path class="st1" d="M588-331c2.8,7.7,2.8,11,1.2,11.5h13.1c-0.7-0.2-4.3-2.1-8.1-12.6l-4.7-12.8l-3.4,9L588-331z"/>
	<path class="st1" d="M517.9-332.1c-3.8,10.2-7.4,12.4-8.3,12.6h7.2c-1.2-0.5-1.4-4,1.5-11.7L517.9-332.1z"/>
	<path class="st1" d="M556.5-433.7H546c0.7,0.3,3.4,2.1,6.5,8.6l-19.3,51.8c-3.4,9.1-5.2,17.4-5.2,23.9c-0.2,16.4,13.8,30.1,30,30.1
		c11.5,0,22.4-7.1,27.5-17.9l0.1,0.2l3.4-9.1L556.5-433.7z M552.9-424.2c0.3,0.9,0.9,1.7,1.2,2.8l9.3,25h-20.7L552.9-424.2z
		 M558.1-319.7c-16,0-29.4-13.4-29.3-29.6c0-6.2,1.7-14.3,5.2-23.4l8.4-23.1h21.3l21.7,58.2C580.8-327.3,570.5-319.7,558.1-319.7z"
		/>
	<path class="st1" d="M639-332.1c-3.8,10.2-7.4,12.4-8.3,12.6h7.2c-1.2-0.5-1.4-4,1.5-11.7L639-332.1z"/>
	<path class="st1" d="M710.4-319.5h12.9c-0.9-0.2-4.5-2.2-8.1-12.6l-37.7-101.6h-10.3c0.9,0.5,3.4,2.2,6.4,8.6l-19.3,51.8
		c-1.9,5.2-3.4,10-4.3,14.5l-27.5-74.9h-10.3c0.9,0.5,3.4,2.2,6.4,8.6L589.1-346l0.4,1.1l29.5-79.3l1,2.8l30.5,81.4l0.5,1.2
		c4.3,11.4,15.5,19.6,28.1,19.6c11.7,0,22.6-7.1,27.7-17.9l2.2,6C711.8-323.3,711.8-320,710.4-319.5z M679.1-319.7
		c-16,0-29.4-13.4-29.3-29.6c0-6.2,1.7-14.3,5.2-23.4l19.1-51.5l1,2.8l31.5,83.8C701.8-327.3,691.5-319.7,679.1-319.7z"/>
	<polygon class="st1" points="585.7,-336.9 586.1,-335.8 589.5,-344.9 589.1,-346 	"/>
</g>
<g>
	<path d="M481.1-131c-2.9,7.7-2.7,11.1-1.5,11.6h-7.2c0.9-0.2,4.4-2.4,8.2-12.5L481.1-131z M514.9-224.1c-3.1-6.5-5.8-8.2-6.5-8.5
		h10.4l37.4,100.7c3.8,10.4,7.3,12.3,8,12.5h-13c1.5-0.5,1.5-3.8-1.2-11.4l-2.4-6c-5.1,10.8-15.9,17.8-27.3,17.8
		c-16.1,0-29.9-13.7-29.7-29.9c0-6.5,1.7-14.7,5.1-23.7L514.9-224.1z M547.5-137.3L526-195h-21.2l-8.4,22.9
		c-3.4,9-5.1,17.1-5.1,23.2c-0.2,16.1,13.1,29.4,29,29.4C532.6-119.6,542.9-127.1,547.5-137.3z M515.2-223.2l-10.1,27.5h20.5
		l-9.2-24.8C516.1-221.5,515.6-222.4,515.2-223.2z"/>
</g>
<g>
	<path d="M703-220.5c-0.3-1-0.9-1.9-1.2-2.7L678.1-159l10.1,27.1c3.4,10.1,7,12.3,7.7,12.5h-12.6c1.5-0.5,1.5-3.8-1.2-11.4
		l-7.3-19.1l-7,19c-2.9,7.7-2.7,11.1-1.5,11.6h-7c1.2-0.3,4.4-3.1,8-12.5l7.2-19.3l-26-69.3c-0.3-1-0.9-1.9-1.2-2.7L613-131
		c-2.9,7.7-2.7,11.1-1.5,11.6h-7c1.2-0.3,4.4-3.1,8-12.5l34.3-92.2c-3.1-6.1-5.5-7.9-6.5-8.5h10.4l26.8,72.4l23.9-63.9
		c-3.1-6.1-5.5-7.9-6.5-8.5h10.4l37.4,100.7c3.4,10.1,7,12.3,7.7,12.5h-12.6c1.5-0.5,1.5-3.8-1.2-11.4L703-220.5z"/>
</g>
<g>
	<path class="st2" d="M607.8-177.1c1.1,0,2.6,0.4,2.4,1.8c-0.4,3.4-5.8,3.4-9,1.7c-1,8.3-10.4,13.8-18.1,13.8
		c-9.2,0-13.4-5.1-13.4-10c0-4.2,3.1-8.3,9.2-9.2c-0.2,0-0.4,0-0.6,0c-8.6-0.8-6.5-7.5-1-7.6c3,0,5.4,2,7.8,3.8
		c1.1-2.2,3.7-3.2,6-3.2c6.1,0,5.4,5.5-0.6,5.5c-4.9,0-8.3-4.8-13.3-4.7c-5.3,0.1-6.3,5.4,1,6c0.5,0,1,0.1,1.6,0.1
		c0.4,0,1.4-0.1,1.4-0.1l1.1,0.7c-8.8,0-12.6,4.2-12.6,8.2c0,4.6,4.3,9.2,13.3,9.2c7.6,0,17-4.2,18-12.5c-3.2-1.6-8.2-1.9-8.8,1
		c-0.2,1.5,1.7,2.5,3.1,2.6v0.1c-1.4-0.2-3.4-1.1-3.2-2.8c0.6-3.7,6.7-3.5,9.6-2c3,1.5,7.9,2.3,8.3-0.7c0.1-1.3-1.2-1.7-2.3-1.7
		V-177.1z M585.1-182.8c1.7,1.2,3.4,2.2,5.4,2.2c5.1,0,5.7-5.4,0.6-5.4C588.8-186,586.3-184.8,585.1-182.8z"/>
</g>
<g>
	<g>
		<path class="st3" d="M-125.2,0.6h0.8v0.3h-1.1c-3.7,0-6.9,4-6.9,8.2c0,3.7,2,7.4,6.8,7.4c4.2,0,6.7-2.9,6.7-6.1
			c0-2.9-1.6-4.7-3.9-4.7c-2,0-3.5,1.3-3.5,3.2c0,1.3,0.4,2.2,1.3,2.5c0,0,0.1,0.1-0.1,0.1c-0.8,0-2.4-0.9-2.4-2.6
			c0-1.2,1-2.4,2.7-3.1c2-0.9,4.4-1.2,5.9-2.1c1.7-0.9,2.3-2.5,2.3-3.7c0-1.3-1.1-2.6-2.5-2.6c-1.3,0-2.2,0.9-2.2,1.8
			c0,0.6,0.4,1.3,1,1.3l-0.1,0.1h-0.2c-0.7,0-1.1-0.8-1.1-1.4c0-1.6,1.3-2.4,2.9-2.4c1.6,0,3.3,1.2,3.3,3.2c0,1.4-0.8,2.9-3.3,4
			c-1,0.5-2.2,0.8-3.6,1.2c-0.3,0.1-0.3,0.3,0,0.3c2.8,0.3,4.8,2.1,4.8,4.8c0,3.5-3.3,6.4-8.3,6.4c-6.1,0-8.6-3.8-8.6-7.7
			c0-3.5,2.8-7,6.4-8.1c0.3-0.1,0.3-0.4,0-0.5c-2.9-1-4.5-3.6-4.5-6.1c0-2.8,2.1-6.6,7.3-6.6c3.7,0,6.4,2.3,6.2,4.9
			c-0.2,2-1.8,3.6-4.2,3.4c-1.4-0.1-2.4-1.1-2.3-2.3c0.1-0.6,0.4-1.1,1-1.2l0.1,0.2c-0.3,0.1-0.6,0.6-0.7,1c-0.1,1.1,0.8,2,2,2.1
			c1.6,0.2,2.9-1.4,3.1-3.2c0.3-2.3-1.7-4.6-5-4.6c-3.5,0-5.5,3.2-5.5,6.4C-130.5-2.7-128.7,0.6-125.2,0.6z"/>
	</g>
	<g>
		<path class="st3" d="M-107.2-34.9h-1.2v-0.9h8.3l16.5,26l16.4-26h8.1v0.9h-1.9c-0.9,0-1.6,0.7-1.6,1.6v71.2c0,0.9,0.7,1.6,1.6,1.6
			h1.9v0.9h-11.6v-0.9h1.9c0.7,0,1.6-0.7,1.6-1.6v-72L-83-9.1l-2.5,3.9h-1l-18.1-29.2v66.6c0,4.4,1.5,7.3,5.5,7.3v0.9h-11.3v-0.9
			c3.2,0,4.8-2.9,4.8-7.3v-65.6C-105.6-34.2-106.5-34.9-107.2-34.9z"/>
	</g>
	<g>
		<path class="st3" d="M-148.3-35.8h7.5v1h-1.3c-1,0-1.7,0.7-1.7,1.7v70.8c0,1,0.7,1.7,1.7,1.7h1.3v0.9h-10.9v-0.9h1.3
			c1.2,0,1.7-0.7,1.7-1.7V18.2c0-1.2-0.9-1.9-1.9-1.9h-23.1c-0.9,0-1.5,0.4-1.7,1.3c-1.7,14.4-5.1,36.4-9.9,47.4
			c-5.1,10.2-13.3,16.7-25.2,17.7C-224.6,83.9-234,75.9-234,65c0-7.8,6.5-14.4,16-14.4c3.9,0,10.2,2.2,10.2,8.4
			c0,1.6-0.7,3.9-2.8,4.6l-0.6-0.7c1.3-0.6,2-1.9,2.2-3.2c0-5.4-4.5-8.1-9-8.1c-6.8,0-11.5,6.4-11.5,13.6c0,10.2,7,17.7,19,16.4
			C-168.8,77.2-185.4-35.8-148.3-35.8z M-174.6,13.5c-0.1,0.7,0.6,1.7,1.6,1.7h22.5c1,0,1.9-1,1.9-1.9v-47.9c0-0.1-0.1-0.3-0.3-0.3
			c-13.6,0-20.3,18.9-24.4,40.9L-174.6,13.5z"/>
	</g>
</g>
<g>
	<g>
		<path class="st3" d="M-2.7,30.9c2.9-0.9,5.4-3,8.6-10.7l20.1-49.7c0.7-1.8,0.6-3.2-0.2-4.8l-0.9-2.1l7.6-3.5l25,60.2
			C60.6,28,63,30,65.2,30.9v1.3H49.4v-1.3c3.2-0.9,2.3-3-0.9-10.6l-6.2-15H13.5l-6,14.9c-2.6,6.6-2.3,10,1.2,10.7v1.3H-2.7V30.9z
			 M41.6,3.8L27.7-29.7L14.2,3.8H41.6z"/>
		<path class="st3" d="M112.1,30.9c3.2-0.9,4.1-3.3,4.1-11.6V-22c0-11.6-2.1-14.5-6.2-15.7V-39h12.3l26.6,43.9L174.9-39h11.5v1.3
			c-4.1,1.2-6.2,4.1-6.2,15.7v41.3c0,8.3,0.9,10.7,4.1,11.6v1.3h-16.5v-1.3c3.1-0.9,4.1-3.3,4.1-11.6v-50.1L146,12.9h-1.9L118-30
			v45.2c0,11.6,2.4,14.5,6.9,15.7v1.3h-12.8V30.9z"/>
	</g>
	<g>
		<path class="st3" d="M72.9,20c0.2-1.4,2.9-4.4,6.2-8.3c-4.9-3.6-8.4-9.4-8.4-16.1c0-7.2,3.8-12.8,9.3-12.8c4.8,0,7.5,4,7.5,10.4
			c0,5.9-2.6,11.7-2.6,11.7c6-7.2,12.8-20.8,12.8-25.4c0-0.7,0.4-1.2,0.8-1.2s0.5,0.3,0.5,0.8c0,5.7-6.5,19-16,29.9
			c-0.5,0.8-0.9,1.8-1.4,2.6c2.7,1.6,6.1,2.4,9.2,2.4c7.9,0,15.7-4.8,15.7-12.5c0-3.7-1.7-5.9-4.9-5.9C99-4.3,98.1-3,97.6-3
			c-0.2,0-0.3-0.2-0.3-0.3c0-0.3,1.7-2.1,4.4-2.1c3.6,0,6,2.8,6,6.8c0,8.7-8.1,13.9-17.1,13.9c-4,0-7-0.9-9.9-2.5
			c-2.8,4.6-5.8,7.8-7.1,8C73.1,20.9,72.8,20.5,72.9,20z M80,10.8l1.3-1.6C83.8,4.5,86-1.3,86-6.7c0-6.1-2.1-9.2-6.1-9.2
			c-4.7,0-7.8,5.3-7.8,11.5C72.1,2.1,75.3,7.5,80,10.8z"/>
	</g>
</g>
<g>
	<g>
		<path class="st3" d="M327.1-1.5c1.2,0.8,1.8,1.9,1.8,3.1c0,4.6-5.5,9.4-10.9,9.4c-3.2,0-6.3-2.2-6.3-5.6c0-4.3,3.5-8.1,7.4-9.8
			c-0.5-0.6-0.8-1.5-0.8-2.4c0-4.4,5.5-8.1,9.6-8.1c1.9,0,3,0.9,3,2.6c1.8,0.1,3.5,1.2,3.5,3.2C334.5-5.5,330.8-3.4,327.1-1.5z
			 M320.7,6.8c0,0.1-0.2,0.3-0.4,0.3c-0.3,0-1.4-0.8-1.4-2.2c0-6.4,14.5-7.5,14.5-14c0-1.6-1.2-2.2-2.7-2.3c-0.6,2-2.9,4-5,4
			c-0.8,0-1.4-0.6-1.4-1.4c0-1.6,3.1-3.2,5.7-3.5c0-1.1-1-1.7-2.1-1.7c-3.4,0-8.4,3.1-8.4,6.9c0,0.9,0.3,1.6,0.7,2.2
			c1.2-0.4,2.4-0.6,3.5-0.6c1.1,0,1.8,0.5,1.8,1.4c0,0.8-1,1.6-2.3,1.6c-1.2,0-2.5-0.4-3.4-1.2c-3.8,1.6-7.1,5.2-7.1,9
			c0,2.9,2.8,4.7,5.2,4.7c5,0,9.8-4.4,9.8-8.3c0-1-0.4-2.1-1.5-2.7C323,0.6,320,2.3,320,5.1C320,6.3,320.7,6.5,320.7,6.8z M321-4.1
			c0.6,0.4,1.4,0.6,2.4,0.6c0.6,0,1.1-0.3,1.1-0.6c0-0.3-0.3-0.4-0.8-0.4C322.8-4.5,321.9-4.4,321-4.1z M329.8-11.4
			c-2.2,0.3-4.4,1.3-4.4,2.6c0,0.4,0.2,0.4,0.4,0.4C327.4-8.4,329.3-9.9,329.8-11.4z"/>
	</g>
	<g>
		<path class="st3" d="M290.3,14c0-6.2,4.1-14.5,8.5-22C285.4,8.3,273.7,19.9,268,19.6c-3.9-0.2-5.8-3.5-5.7-8.2
			c0.3-16.8,19-37.8,37.4-37.8c3.1,0,9.4,0.6,13.8,2l1.5,0.4c1.2,0.4,1.6,1.2,0.9,2.2c-3.1,4.6-7.7,12.1-10.9,18.2
			c-2.9,6-5.2,10.7-5.2,14.9c0,1.6,0.7,2.6,2.3,2.6c1.9,0,4.8-2,7.8-4.8l0.8,0.9c-7.4,6.9-12.3,9.6-15.1,9.6
			C291.5,19.6,290.3,16.2,290.3,14z M273.8,13.9c4,0,15.2-11.1,30.9-31.3l1.2-1.8c-4.5-1.8-10.8-3.6-14.3-3.6
			C279-22.7,271.2,0,271.2,8.9C271.2,10.6,271.3,13.9,273.8,13.9z"/>
		<path class="st3" d="M335.3,17.7c2.9-1,3.6-3.7,3.6-10.1v-20.5c0-5.3-1.3-6.1-3.6-7.1v-1.2l11.8-5.2l0.9,0.7v7.5
			c4.9-4,11.3-8,18.3-8c6.2,0,10.3,2.4,12,8.1c4.9-4,11.4-8.1,18.4-8.1c8.2,0,12.8,4.3,12.8,14.7V7.6c0,6.4,0.6,9.1,3.6,10.1v1.2
			h-16.2v-1.2c2.9-1,3.6-3.7,3.6-10.1V-9.9c0-8-2.6-12.7-9.2-12.7c-4.2,0-8,2-12.7,5.8c0.4,1.6,0.5,3.4,0.5,5.3V7.6
			c0,6.4,0.6,9.1,3.6,10.1v1.2h-16.2v-1.2c2.9-1,3.6-3.7,3.6-10.1V-9.9c0-8-2.6-12.7-9.2-12.7c-4.2,0-8,2-12.8,6V7.6
			c0,6.4,0.6,9.1,3.6,10.1v1.2h-16.2V17.7z"/>
	</g>
</g>
<g>
	<g>
		<path class="st0" d="M573.4-29.1c-6,1.7-11.7,4.9-20,13.2l-6.7,6.7l3.5,7.4l12.7-15.9C566.6-22.4,570.5-26.9,573.4-29.1z"/>
	</g>
	<g>
		<path class="st0" d="M547,11.4c0-0.1,0.1-0.2,0.2-0.2h0.2c1.7,0,2.6-0.6,2.6-1.9c0-0.8-0.3-1.9-1-3.4l-0.3-0.7L539.3,17
			c-3.7,4.6-6.6,8.1-9.4,10.5c4.8-2.4,10-6.1,18.3-13.9l2-1.9h-3.1C547.1,11.7,547,11.6,547,11.4z"/>
	</g>
	<g>
		<path class="st0" d="M526.1-42.9l-9.9,22.8c-0.2,0.5-0.3,0.9-0.3,1.2c0,0.6,0.5,0.8,1.3,0.8h18.6c0.8,0,1.4-0.1,1.4-0.8
			c0-0.3-0.1-0.7-0.4-1.3L526.1-42.9z"/>
	</g>
	<g>
		<path d="M553.4-15.9c8.3-8.3,14-11.5,20-13.2c-3,2.2-6.8,6.7-10.6,11.4L550.2-1.7l1.5,3.2l15.4-19.4c4.6-5.7,7.2-9,11-12.5
			l-0.1-0.1c-8.8,1.1-16,5.2-25,14.3l-6.6,6.6l0.2,0.5L553.4-15.9z"/>
	</g>
	<g>
		<path d="M605.1-30.5c-8.4,1.4-14.8,4.7-25.2,14.5L554.8,7.5c0.1,0.1,0.2,0.3,0.3,0.4l25-23.4c8.6-8,14.1-11.4,19.3-13.2
			c-2.7,2.1-7,6.5-11,11.2l-27.4,32.9c-4.2,5.1-6,8.9-6,11.7c0,2.3,1.3,4.1,3.8,4.1c5.1,0,13.1-7.4,19.5-13.8l3.9-3.9l-0.3-0.3
			l-3.9,3.9c-6.4,6.4-14.3,13.7-19.1,13.7c-1.6,0-2.4-0.9-2.4-2.3c0-1.7,1.1-3.9,4.1-7.4l32.5-39C598.1-24,601-27,605.1-30.5
			L605.1-30.5z"/>
	</g>
	<g>
		<path d="M524.4,12.4C513.3,23.4,507,27,495.9,27h-4.2l-2.7,3.2h4.1c11.5,0,20.6-6.3,31.7-17.5l18.6-18.6l-0.2-0.5L524.4,12.4z"/>
	</g>
	<g>
		<path d="M548.3,13.6c-8.4,7.9-13.5,11.6-18.3,13.9c2.8-2.4,5.7-5.8,9.4-10.5l9.4-11.8l-1.5-3.2l-12.4,15.6
			c-4.5,5.7-7.3,9.1-10.6,12.4l0.1,0.1c7.9-2.2,14.9-7.4,24.1-16.1l2.6-2.4h-0.7L548.3,13.6z"/>
	</g>
	<g>
		<path d="M528.4-47.8c0-0.1-0.1-0.2-0.3-0.2c-0.2,0-0.3,0.1-0.3,0.2L506.5,1.1c-3.2,7.3-6.3,10.2-8.3,10.2h-0.2
			c-0.1,0-0.2,0.1-0.2,0.2c0,0.1,0.1,0.2,0.2,0.2h13.4c0.1,0,0.2-0.1,0.2-0.2c0-0.1-0.1-0.2-0.2-0.2h-0.6c-2.5,0-4.7-1.4-4.7-5
			c0-1.8,0.5-4.1,1.8-7l6.3-14.6c0.7-1.6,1.5-2.3,2.9-2.3h18.9c1.1,0,2.1,0.3,3,2.1l4.3,9.1l3.2-3.2L528.4-47.8z M535.8-18.1h-18.6
			c-0.7,0-1.3-0.1-1.3-0.8c0-0.3,0-0.6,0.3-1.2l9.9-22.8l10.7,22.7c0.3,0.5,0.4,1,0.4,1.3C537.1-18.2,536.6-18.1,535.8-18.1z"/>
	</g>
	<g>
		<path d="M549,5.9c0.7,1.5,1,2.5,1,3.4c0,1.4-0.9,1.9-2.6,1.9h-0.2c-0.1,0-0.2,0.1-0.2,0.2c0,0.1,0.1,0.2,0.2,0.2h3.1l4.5-4.2
			c-0.4-0.7-0.9-1.4-1.3-2.3l-1.8-3.8l-3,3.8L549,5.9z"/>
	</g>
	<g>
		<polygon points="546.4,-9.7 543.2,-6.4 543.5,-5.9 546.7,-9.2 		"/>
	</g>
	<g>
		<polygon points="551.7,1.4 550.2,-1.7 547.2,2.1 548.7,5.2 		"/>
	</g>
	<g>
		<path d="M550.3,11.7h0.7l4-3.8c-0.1-0.1-0.2-0.3-0.3-0.4L550.3,11.7z"/>
	</g>
</g>
<g>
	<path class="st3" d="M739.2-4.7c-6.6,16.7-20.1,35-31.5,35c-9.9,0-11-8.1-11-12c0-2.6,0.3-5.6,1-8.7c-5.3,9.7-12.5,20.8-21.9,20.8
		c-11.9,0-13.5-11.1-13.5-17.3c0-20,19.3-48.7,36.8-48.7c8.2,0,11.7,4.5,11.7,10.4c0,0.7-0.2,1.5-0.3,2.3c2.1-4.1,4.1-8.1,5.9-11.4
		h16.5c0,0-18.8,34-18.8,44c0,2.5,0.8,4,3,4c5.8,0,11.7-7.9,16.8-18.3H739.2z M706.6-22.4c0-3.6-1.3-6.3-5.3-6.3
		c-10.6,0-23.3,24.6-23.3,36c0,4.3,2.1,6.3,5.3,6.3c5.6,0,13.5-7.3,19-19.6C703.1-8.2,706.6-16.4,706.6-22.4z"/>
	<path class="st3" d="M830.1,50.5c12.5,0,21.6-8.6,21.6-20.8c0-7.3-5.1-13.2-11.7-13.2c-1.6,0-5.1,0.7-6.9,2.5
		c1.3-6.1,6.6-10.6,14-10.6c9.6,0,17.6,6.8,17.6,17.8c0,14.8-16.8,32-39.6,32c-21.8,0-34.8-13-34.8-31c0-20.9,22.6-42.9,24.1-51
		c0.7-3-1-4.5-3.5-4.5c-8.1,0-30,34.3-34.1,43.4l-5.9,14h-17c0,0,7.6-15.2,15.3-33.3c5.8-13.7,8.7-18.8,8.7-21.3
		c0-2-1.2-2.8-2.6-2.8c-7.6,0-26.4,30-32.2,41.2l-2.3,5.3c-2,4.5-3.8,8.4-4.8,10.9h-18c0,0,9.2-17.6,28.2-63.7h16.5L750.6-8.9
		c8.1-13,16.7-27,29.9-27c6.8,0,11.5,3.6,11.5,10.4c0,3.8-1.8,9.1-4.5,13.5h0.3l-0.7,1.3c8.1-12.7,16.8-26.1,29.5-26.1
		c7.4,0,12.7,4.8,12.7,11.9c0,13.4-22.6,33-22.6,51.1C806.8,43.3,817.4,50.5,830.1,50.5z"/>
</g>
</svg>
