<svg width="295" height="36" viewBox="0 0 295 36" fill="none" xmlns="http://www.w3.org/2000/svg">
<path d="M15.4357 8.53347C14.0141 8.52233 12.6101 8.84961 11.3392 9.48843C10.0682 10.1272 8.96658 11.0594 8.12469 12.2082V0H0V34.4243H8.12469V21.7955C8.12469 18.3511 10.1215 15.4799 12.6725 15.4799C15.2235 15.4799 16.3018 17.087 16.3018 20.0733V34.4243H24.4265V20.0733C24.4265 13.1845 21.8256 8.53347 15.4357 8.53347Z" fill="#E20C79"/>
<path d="M42.6823 8.53345C34.6674 8.53345 28.7617 13.8728 28.7617 21.8005C28.7617 29.8383 34.4503 35.005 42.6823 35.005C49.0198 35.005 54.1093 31.6732 55.517 25.0146H47.2276C47.1727 26.852 45.3855 28.8621 42.515 28.8621C39.3201 28.8621 37.3682 25.7606 37.3682 22.8343H55.8915C55.8915 22.3162 55.9464 21.7429 55.9464 21.2273C55.9464 13.1269 49.9333 8.53345 42.6823 8.53345ZM37.478 18.7541C37.478 18.7541 37.7476 14.0455 42.8395 14.0455C47.7668 14.0455 48.1462 18.7541 48.1462 18.7541H37.478Z" fill="#E20C79"/>
<path d="M79.7772 12.2082C77.6631 9.45463 74.6304 8.53345 71.5976 8.53345C64.8283 8.53345 59.7363 14.7915 59.7363 21.8005C59.7363 28.8095 64.8283 35.005 71.5976 35.005C74.6304 35.005 78.1523 33.9712 79.7772 31.3878V34.4292H87.8994V9.16676H79.7772V12.2082ZM73.0179 28.1111C69.773 28.1111 67.3319 25.1248 67.3319 21.7955C67.3319 18.4662 69.768 15.4799 73.0179 15.4799C75.1445 15.4799 76.9242 16.759 77.9002 18.5764V25.0121C76.9242 26.832 75.1445 28.1111 73.0179 28.1111Z" fill="#E20C79"/>
<path d="M113.072 12.2082C110.96 9.45466 107.927 8.53347 104.895 8.53347C98.1252 8.53347 93.0332 14.7915 93.0332 21.8005C93.0332 28.8095 98.1252 35.005 104.895 35.005C107.927 35.005 111.447 33.9712 113.072 31.3879V34.4293H121.196V0H113.072V12.2082ZM106.332 28.1111C103.087 28.1111 100.646 25.1248 100.646 21.7955C100.646 18.4662 103.087 15.4799 106.332 15.4799C108.387 15.4799 110.114 16.6739 111.11 18.3911V25.1999C110.106 26.9171 108.379 28.1111 106.332 28.1111Z" fill="#E20C79"/>
<path d="M143.14 8.53347C141.718 8.52233 140.314 8.84961 139.043 9.48843C137.772 10.1272 136.671 11.0594 135.829 12.2082V0H127.704V34.4243H135.829V21.7955C135.829 18.3511 137.826 15.4799 140.379 15.4799C142.933 15.4799 144.008 17.087 144.008 20.0733V34.4243H152.131V20.0733C152.131 13.1845 149.532 8.53347 143.14 8.53347Z" fill="#E20C79"/>
<path d="M173.579 21.7956C173.579 25.1824 171.582 28.1112 169.028 28.1112C166.475 28.1112 165.399 26.4465 165.399 23.5303V9.10925H157.274V23.5303C157.274 30.3616 159.875 35.0126 166.26 35.0126C167.682 35.0241 169.087 34.697 170.358 34.0582C171.63 33.4193 172.732 32.487 173.574 31.3378V34.4368H181.713V9.10925H173.579V21.7956Z" fill="#E20C79"/>
<path d="M203.634 8.53348C202.212 8.52234 200.808 8.84962 199.537 9.48844C198.266 10.1273 197.165 11.0594 196.323 12.2082V9.10922H188.203V34.4243H196.328V21.7955C196.328 18.3511 198.325 15.4799 200.878 15.4799C203.432 15.4799 204.507 17.087 204.507 20.0733V34.4243H212.63V20.0733C212.625 13.1845 210.026 8.53348 203.634 8.53348Z" fill="#E20C79"/>
<path d="M228.547 0H220.478V9.10921H216.145V15.7678H220.478V34.4243H228.547V15.7678H232.881V9.10921H228.547V0Z" fill="#E20C79"/>
<path d="M249.779 8.53345C241.762 8.53345 235.858 13.8728 235.858 21.8005C235.858 29.8383 241.544 35.005 249.779 35.005C256.114 35.005 261.206 31.6732 262.614 25.0146H254.327C254.274 26.852 252.487 28.8621 249.617 28.8621C246.419 28.8621 244.47 25.7606 244.47 22.8343H262.993C262.993 22.3162 263.048 21.7429 263.048 21.2273C263.048 13.1269 257.035 8.53345 249.779 8.53345ZM244.58 18.7541C244.58 18.7541 244.849 14.0455 249.941 14.0455C254.868 14.0455 255.248 18.7541 255.248 18.7541H244.58Z" fill="#E20C79"/>
<path d="M286.878 0V12.2082C284.764 9.45466 281.731 8.53347 278.698 8.53347C271.929 8.53347 266.837 14.7915 266.837 21.8005C266.837 28.8095 271.929 35.005 278.698 35.005C281.731 35.005 285.253 33.9712 286.878 31.3879V34.4293H295V0H286.878ZM280.118 28.1111C276.874 28.1111 274.432 25.1248 274.432 21.7955C274.432 18.4662 276.869 15.4799 280.118 15.4799C282.365 15.4799 284.212 16.8992 285.148 18.8693V24.7218C284.212 26.6918 282.357 28.1111 280.118 28.1111Z" fill="#E20C79"/>
</svg>
