<svg xmlns="http://www.w3.org/2000/svg" width="4398.6" height="1001" viewBox="0 0 4398.6 1001"><path d="M2463.4,470.7l.5-.2a16.3,16.3,0,0,1,1,2.5c1.5,4.3,3.2,8.5,4.5,12.9.6,1.8,1.4,2.4,3.5,2.4H2664a3,3,0,0,0,3.4-2.4c1.5-4.3,3.2-8.5,4.8-12.7.3-.7.7-1.4,1-2.2h.6v17h106.8V453.5H2588.2c-2.7,0-6.2-.9-7.9.5s-2.4,4.8-3.3,7.4c-2.6,7-5.1,13.9-7.8,21.5l-1.4-3.6c-2.8-7.7-5.7-15.3-8.3-23-.7-2.2-1.8-2.9-4.1-2.9H2356.6V488h106.8ZM2257.1,656.5h-393v34.6h375.7c4.2,0,6.4-1.6,8.2-5C2252.7,676.9,2254.9,666.9,2257.1,656.5ZM1864,352.8h393c-.4-2-.7-3.8-1.1-5.6-2.2-8.9-4.3-17.9-9.2-25.9a5.3,5.3,0,0,0-5.3-3q-186.9.1-373.9.1H1864Zm351.3-67.4.3-.8c-4.3-3.2-8.4-6.6-12.8-9.7-22.9-15.9-47.9-24.3-76.2-24.2-86.3.4-172.6.1-259,.1h-3.5v34.6ZM1935,488.3h271.9a8,8,0,0,0,2.6-.9c9.7-8,18.6-16.7,25.5-27.2,1.3-2,2.3-4.2,3.6-6.5H1935Zm0,67.4h303.5c-.9-1.7-1.5-3.1-2.3-4.4-6.7-11.2-15.9-20.2-25.9-28.5a7.6,7.6,0,0,0-4.6-1.6q-133.6-.2-267.5,0H1935ZM1583.5,690.9h247V656.5h-247Zm245-338V318.6H1581.7v34.3Zm.2-101.9h-247v34.3h247Zm693,101.9-.8-2.8c-3.2-9.6-6.6-19.2-9.7-28.9-.7-2.2-1.8-2.9-4.1-2.9q-109.2.1-218.5.1h-3.1v34.5Zm328.1,0V318.4H2628.1c-1.5-.2-2.2.4-2.7,1.9-1.2,3.9-2.6,7.6-3.8,11.4-2.4,7-4.7,14-7.1,21.2Zm-564.3-67.5h212.8a19.9,19.9,0,0,0-.9-2.9c-3.5-9.6-7.1-19.2-10.4-28.9-.8-2.3-1.9-2.9-4.1-2.8H2285.5Zm564.4-34.6H2655c-2.6,0-4.1.6-4.9,3.3a82.9,82.9,0,0,1-3.1,8.7c-2.7,7.5-5.4,15-8.2,22.5h211.1ZM2780.8,386H2605.3c-1.9,0-2.8.6-3.5,2.5-3.5,9.9-7.2,19.8-10.8,29.8a21,21,0,0,0-.6,2.4h190.4Zm-234.7,34.5c-.4-1-.6-1.8-.9-2.6-3.5-9.8-7.1-19.5-10.5-29.3-.8-2.2-1.9-2.7-4.2-2.7H2356.6v34.6ZM2287.4,690.9h175.8V656.5H2287.4ZM2483,521.3c4.1,10.9,8.1,21.5,11.9,32,.7,2.1,1.8,2.7,3.9,2.7q70.6-.2,141.4,0c2,0,3-.6,3.7-2.6,3.4-9.9,7-19.7,10.5-29.6l.7-2.5ZM2146.3,386.1v34.6H2250c2.6,0,3.8-.8,4.4-3.3,1.1-4.7,2.7-9.4,3.6-14.2s1.6-11.3,2.4-17.2Zm0,237.1H2260a30.1,30.1,0,0,0-.2-5.3c-1.8-8.8-3.8-17.4-5.5-26.1-.5-2.5-1.8-3.2-4.2-3.2H2149.4l-3.1.2ZM2631,588.9H2507.7a8.8,8.8,0,0,0,.2,1.6c3.8,10.4,7.5,20.9,11.5,31.3a3.5,3.5,0,0,0,2.7,1.6h94.1a2.8,2.8,0,0,0,3.1-2.2c3.2-9.1,6.5-18.2,9.8-27.3l1.9-5.1ZM1652.7,488.1h106.7V453.7H1652.7Zm106.8,33.2H1652.8v34.5h106.7Zm1021.3.1H2674v34.3h106.8Zm-424.2-.1v34.4h106.7V521.3ZM1759.5,386.1H1652.8v34.4h106.7ZM1652.7,623.4h106.8V588.9H1652.7Zm1128-34.4H2674v34.3h106.7ZM2041.8,386.1H1935.1v34.4h106.7ZM1935.1,623.3h106.6V588.9H1935.1Zm528.2,0V588.9H2356.6v34.4Zm143.4,33.2h-74.6c0,.5-.1.8,0,1,4,10.7,7.9,21.4,12,32.1a3.4,3.4,0,0,0,2.6,1.4h45.9a2.6,2.6,0,0,0,2.9-2q2.9-8.7,6-17.4Z" fill="#fff"/><path d="M1863.9,758.6V724.1H2216l-5.4,4.6c-18.2,14.3-38.3,24.5-61.3,28.5l-10,1.4Z"/><path d="M1583.2,758.6l.2-30.9v-3.5h247.4v31.3c0,1,.1,2.1.2,3.1Z"/><path d="M2673.5,758.6c.1-4.2.2-8.4.2-12.7.1-7.1,0-14.3,0-21.7l2.5-.3h175.7v34.6Z"/><path d="M2851.9,691.1H2674V656.5l2.7-.2h172.7l2.5.2Z"/><path d="M2287.2,758.6V724.2h176.1v34.4Z"/><path d="M2568.4,758.6c-3.7-10.5-7.5-21.1-11.2-31.7l-.9-2.9h26.8l-12.4,34.6Z"/><path d="M2463.4,470.7v17.4H2356.6V453.5h198.8c2.3,0,3.4.7,4.1,2.8,2.6,7.8,5.5,15.4,8.3,23.1.4,1,.7,1.9,1.4,3.5,2.7-7.6,5.2-14.5,7.8-21.4.9-2.6,1.4-6.1,3.3-7.5s5.2-.4,7.9-.4h192.4v34.5H2673.8v-17h-.6c-.3.8-.7,1.5-1,2.2-1.6,4.2-3.3,8.4-4.8,12.7a3,3,0,0,1-3.4,2.4H2472.9c-2.1,0-2.9-.6-3.5-2.4-1.3-4.4-3-8.6-4.5-12.9a16.3,16.3,0,0,0-1-2.5Z"/><path d="M2257.1,656.5c-2.2,10.4-4.4,20.4-9.1,29.7-1.8,3.4-4,5-8.2,5q-185.9-.3-371.9-.1h-3.8V656.5Z"/><path d="M1864,352.8V318.4h377.4a5.4,5.4,0,0,1,5.3,2.9c4.9,8.1,7,17,9.2,26,.4,1.8.7,3.5,1.1,5.6Z"/><path d="M2215.3,285.4H1864.1V250.8h3.5c86.4,0,172.7.3,259-.1,28.3-.1,53.3,8.3,76.2,24.2,4.4,3.1,8.5,6.5,12.8,9.7Z"/><path d="M1935,488.3V453.7h303.6c-1.3,2.3-2.3,4.5-3.6,6.5-6.9,10.5-15.8,19.2-25.5,27.2a8,8,0,0,1-2.6.9Z"/><path d="M1935,555.7V521.2h270.7a7,7,0,0,1,4.6,1.6c10,8.2,19.2,17.2,25.9,28.5.8,1.2,1.4,2.6,2.3,4.3Z"/><path d="M1583.5,690.9V656.5h247v34.4Z"/><path d="M1828.5,352.9H1581.7V318.6h246.8Z"/><path d="M1828.7,251v34.3h-247V251Z"/><path d="M2521.7,352.9H2285.5V318.4h221.6c2.3,0,3.4.6,4.1,2.9,3.1,9.6,6.5,19.3,9.7,28.9Z"/><path d="M2849.8,352.9H2614.5c2.4-7.2,4.7-14.2,7.1-21.2,1.2-3.8,2.6-7.5,3.8-11.4.5-1.5,1.2-2.1,2.7-1.9h221.7Z"/><path d="M2285.5,285.4V250.8h197.4c2.2-.1,3.3.5,4.1,2.8,3.3,9.7,6.9,19.3,10.4,28.9a19.9,19.9,0,0,1,.9,2.9Z"/><path d="M2849.9,250.8v34.5H2638.8c2.8-7.6,5.5-15.1,8.2-22.6a68,68,0,0,0,3.1-8.6c.8-3,2.3-3.4,4.9-3.4q95.5.2,191.1.1Z"/><path d="M2780.8,386v34.5H2590.4a21,21,0,0,1,.6-2.4c3.6-9.9,7.3-19.8,10.8-29.8.7-1.9,1.6-2.4,3.5-2.4h175.5Z"/><path d="M2546.1,420.5H2356.6V385.9h173.9c2.3,0,3.4.5,4.2,2.8,3.4,9.8,7,19.5,10.5,29.2C2545.5,418.7,2545.7,419.5,2546.1,420.5Z"/><path d="M2287.4,690.9V656.5h175.8v34.4Z"/><path d="M2483,521.3h172.1l-.7,2.5c-3.5,9.9-7.1,19.7-10.5,29.6-.7,2-1.7,2.6-3.7,2.6q-70.6-.2-141.4,0c-2.1,0-3.2-.6-3.9-2.7C2491.1,542.8,2487.1,532.2,2483,521.3Z"/><path d="M2146.3,386.1h114.1c-.8,5.9-1.4,11.6-2.4,17.2s-2.5,9.5-3.6,14.2c-.6,2.5-1.8,3.3-4.4,3.3H2146.3Z"/><path d="M2146.3,623.2V588.9l3.1-.2h100.7c2.4,0,3.7.7,4.2,3.2,1.7,8.7,3.7,17.3,5.5,26.1a30.1,30.1,0,0,1,.2,5.3Z"/><path d="M2631,588.9l-1.9,5.1c-3.3,9.1-6.6,18.2-9.8,27.3a2.8,2.8,0,0,1-3.1,2.2h-94.1a3.5,3.5,0,0,1-2.7-1.6c-4-10.4-7.7-20.9-11.5-31.3a8.8,8.8,0,0,1-.2-1.6Z"/><path d="M1652.7,488.1V453.7h106.7v34.4Z"/><path d="M1759.5,521.3v34.5H1652.8V521.3Z"/><path d="M2780.8,521.4v34.3H2674V521.4Z"/><path d="M2356.6,521.3h106.7v34.4H2356.6Z"/><path d="M1759.5,386.1v34.4H1652.8V386.1Z"/><path d="M1652.7,623.4V588.9h106.8v34.5Z"/><path d="M2780.7,589v34.3H2674V589Z"/><path d="M2041.8,386.1v34.4H1935.1V386.1Z"/><path d="M1935.1,623.3V588.9h106.6v34.4Z"/><path d="M2463.3,623.3H2356.6V588.9h106.7Z"/><path d="M2606.7,656.5c-1.8,5.2-3.6,10.2-5.2,15.2s-4.1,11.6-6,17.4a2.6,2.6,0,0,1-2.9,2h-45.9a3.4,3.4,0,0,1-2.6-1.4c-4.1-10.7-8-21.4-12-32.1-.1-.2,0-.5,0-1Z"/></svg>