<svg xmlns="http://www.w3.org/2000/svg" width="64.5" height="22" viewBox="0 0 64.5 22"><path d="M24.4,7.1h0A3.3,3.3,0,0,0,22.9,6,6.3,6.3,0,0,0,21,5.7a5,5,0,0,0-2.1.5,3.7,3.7,0,0,0-1.5,1.3,5.2,5.2,0,0,0-1,1.8,7.6,7.6,0,0,0-.3,2.1,5.4,5.4,0,0,0,.4,2.2,5.2,5.2,0,0,0,1,1.8,4.5,4.5,0,0,0,1.7,1.1,5.2,5.2,0,0,0,2.1.4h1.1l.9-.4.8-.6.5-.5h.1v1.4h3V0H24.4V7.1ZM24,13.3a2.6,2.6,0,0,1-2,.7,2.4,2.4,0,0,1-1.9-.7,2.6,2.6,0,0,1-.7-1.9,2.7,2.7,0,0,1,.7-2A2.4,2.4,0,0,1,22,8.7a2.6,2.6,0,0,1,2,.7,2.7,2.7,0,0,1,.7,2A2.6,2.6,0,0,1,24,13.3Z" fill="#000102"/><rect x="29.1" y="6" width="3.3" height="10.71" fill="#000102"/><path d="M30.7.7a1.6,1.6,0,0,0-1.3.6,1.6,1.6,0,0,0-.6,1.3A2,2,0,0,0,29.4,4a2,2,0,0,0,2.7,0h0a2,2,0,0,0,.6-1.4,1.6,1.6,0,0,0-.6-1.3A1.8,1.8,0,0,0,30.7.7Z" fill="#000102"/><path d="M41.6,7.4h0l-.5-.6-.8-.5-1.1-.4-1.3-.2a4.4,4.4,0,0,0-3.6,1.8,5.6,5.6,0,0,0-.9,1.7,7.8,7.8,0,0,0-.4,2.1,7.8,7.8,0,0,0,.4,2.2,5.4,5.4,0,0,0,1.1,1.8,4.8,4.8,0,0,0,1.6,1.2,8.5,8.5,0,0,0,2.2.4l1.6-.4a2.6,2.6,0,0,0,1.4-1.1h.1v1.1a3.2,3.2,0,0,1-.7,1.9,3.2,3.2,0,0,1-2.3.7,6.3,6.3,0,0,1-1.9-.3l-1.6-1.1-1.8,2.8a5.7,5.7,0,0,0,2.6,1.2,12.7,12.7,0,0,0,2.8.3,6.6,6.6,0,0,0,4.7-1.5,6.6,6.6,0,0,0,1.5-4.7V6H41.6Zm-.1,4.9-.6.8a1.8,1.8,0,0,1-.9.6,1.6,1.6,0,0,1-1,.2l-1-.2a1.8,1.8,0,0,1-.9-.6,2.2,2.2,0,0,1-.5-.8,2.6,2.6,0,0,1,.5-2.9l.9-.6a3.4,3.4,0,0,1,2,0l.9.6.6.9a3.4,3.4,0,0,1,0,2Z" fill="#000102"/><path d="M47.7,4.5A1.9,1.9,0,0,0,49.1,4a2.4,2.4,0,0,0,.5-1.4,1.9,1.9,0,0,0-.5-1.3,1.9,1.9,0,0,0-2.8,0h0a1.9,1.9,0,0,0-.5,1.3A2.4,2.4,0,0,0,46.3,4,1.9,1.9,0,0,0,47.7,4.5Z" fill="#000102"/><path d="M64.5,8.6V6H61.6V2.8H58.3V6H54.4V2.8H51.1V6H46V16.7h3.4V8.6h1.7v5.1a3.7,3.7,0,0,0,.3,1.5,2,2,0,0,0,.8,1,3.4,3.4,0,0,0,1.2.6L55,17h1.1l1.2-.2V13.9c-.2.2-.4.2-.6.3H55.1l-.5-.4a1.4,1.4,0,0,1-.2-.7V8.7h3.9v5.1a4,4,0,0,0,.3,1.5,2.5,2.5,0,0,0,.8,1l1.2.5,1.6.2h1.2l1.1-.3V13.9l-.6.3H62.3l-.5-.4c-.1-.2-.1-.4-.2-.6V8.7h2.9Z" fill="#000102"/><path d="M14.7,14.7H12.2l1.6-5.9a3.2,3.2,0,0,0,.1-1.7A1.7,1.7,0,0,0,13.3,6,2.8,2.8,0,0,0,12,5.3l-1.8-.2H7.4l1-3.4h-4l-1,3.4H.9v.3L0,8.4H2.5L.9,14.3A3.2,3.2,0,0,0,.8,16a2.3,2.3,0,0,0,.6,1.2,3.5,3.5,0,0,0,1.4.6l1.5.2h3l-.9,3.4h3.9l1-3.4h2.5v-.2h0ZM5,13.7,6.2,9.4a1.4,1.4,0,0,1,.2-.7h0c.2-.3.5-.4,1.1-.4H9c.6,0,.9.4.7,1.1L8.6,13.7c-.2.8-.3,1.1-1.3,1.1H5.8C5.1,14.8,4.9,14.3,5,13.7Z" fill="#000102"/></svg>