<svg xmlns="http://www.w3.org/2000/svg" width="95.7" height="13.4" viewBox="0 0 95.7 13.4"><path d="M19.5.1c-.5,1.7-1.1,3.6-1.6,5.4l-2.3,7.7v.2H11.7L9.8,6.5h0a8.4,8.4,0,0,0-.5,1.7l-1.4,5c-.1.2-.2.2-.4.2H4.2c-.1.1-.3,0-.3-.2L.1.2C0,.2,0,.1.1,0H4.6l.7,2.7c.3,1.5.6,2.9,1,4.3a.4.4,0,0,0,.1-.3A26.8,26.8,0,0,0,7.1,4c.2-.9.7-2.7,1.1-4h3.1V.2L13,6.3l.2.7h.1c.2-1.1.5-2.3.8-3.4s.4-2.3.7-3.4Z"/><path d="M83.6.1V13.4H79.9l-.4-.2L75.8,7l-.3-.2v6.6H71.1V0h4V.2l3.4,5.5.5.9h0V0Z"/><path d="M38.5.1V3.2l-.2.3L33.6,9.1l-.2.3h5.4v4H27.6v-3l.2-.5,4.8-5.7V4H27.8V.1Z"/><path d="M50.2.1V3.7H45.3V5.1h4q.5,0,.3.3V8.2H45.2V9.8h5.2v3.6H40.9V.1Z"/><path d="M95.5.1V3.6H90.6V5.1h4.3V8.2H90.6V9.8h5.1v3.6H86.3V0Z"/><path d="M57.1.1V9.4H62v4H52.7V0Z"/><path d="M25.5.1V13.4H21.2V.1Z"/><path d="M68.5.1V13.4H64.2V0Z"/></svg>