<svg xmlns="http://www.w3.org/2000/svg" width="522.7" height="80.2" viewBox="0 0 522.7 80.2"><path d="M99.2,59l3.9-5c-2.4-2.9-1.5-5.9.8-8.6-3.7-7.4-3.6-12,.3-15.5s9-3.3,14.1-.1l7.6-2.7,1,3.7-6.5,1.3c.2,1.3.4,2.3.6,3.3,1.1,7.8-3.9,12.9-11.9,11.9-1.4-.2-3.2-1.2-3.5,1.4s1.3,3,3.2,3.1,6.3.4,9.5.8,5.8,1.6,6.5,5a8,8,0,0,1-3.4,8.6c-6.1,4-17.8,2.3-22.2-3.3Zm13,6.2a38.9,38.9,0,0,0,5.3-.9,4.4,4.4,0,0,0,3.4-4.6c-.3-2.6-2.3-3.2-4.5-3.4a77.8,77.8,0,0,1-7.9-.6c-2.6-.3-4.2.4-4.9,3s.4,4.5,2.9,5.3A34.5,34.5,0,0,0,112.2,65.2Zm-.9-34.3a6.4,6.4,0,0,0-6.5,6.3h0a6.4,6.4,0,0,0,6,6.5,6.6,6.6,0,0,0,6.8-6.2,6.5,6.5,0,0,0-6.3-6.7Z"/><path d="M308.4,57.3h-6.6V27.7h5.9l1.1,4.6c2.5-4,5.7-5.7,9.9-5.5s7.2,2.2,9.4,6c2.4-3.7,5.4-6,9.9-6s10.3,2.9,10.8,8.8.2,14.3.2,21.6h-6.7V42.8a41.5,41.5,0,0,0-.3-4.9,5.1,5.1,0,0,0-4.4-4.6c-2.7-.5-5.4.1-6.5,2.8a28,28,0,0,0-1.8,8.1c-.3,4.3-.1,8.5-.1,12.7a2.1,2.1,0,0,1-1.2.4c-5.9.5-5.9.5-5.9-5.5,0-4.2,0-8.4-.1-12.7,0-2.7-1.1-4.9-4-5.7s-5.9,0-7.3,3a20.8,20.8,0,0,0-1.9,7.8c-.4,3.9-.2,8-.2,12.1C308.6,56.5,308.5,56.7,308.4,57.3Z"/><path d="M195,41.2c-.1,11.7-8,18.5-16.9,15.7a23.6,23.6,0,0,1-7.2-4.5c-7.1-5.5-11.2-5.7-18.2,0-4.2,3.5-8.5,6.3-14.3,4.6H138c-6-2-8.6-6.5-9.4-12.6s2-12.7,6.9-15.2,10.4-2.2,14.8,1.6c9.1,8.1,14.1,7.9,22.8.1A12.2,12.2,0,0,1,187.6,29C192.7,31.6,194.8,36.8,195,41.2Zm-61.9.8a34.7,34.7,0,0,0,.5,4.2c1.5,6.6,7.7,10.4,13.8,5.2q2.8-2.4,5.7-4.5a13.8,13.8,0,0,1,17.4,0c2.3,1.8,4.4,3.7,6.7,5.3,4.3,2.9,8.8,1.9,11.3-2.5a14,14,0,0,0-.1-14.4c-2.4-4.2-7-5.2-11-2.5-2.3,1.5-4.3,3.4-6.5,5-5.8,4.6-12.3,4.6-18.2.1l-5.9-4.7c-5-3.5-10.3-2-12.5,3.7A24.5,24.5,0,0,0,133.1,42Z"/><path d="M233.4,57.3v-42h7V30.2c3-1.2,5.9-3,8.9-3.2,6.2-.6,10.4,2.6,10.9,8.8s.2,14.1.2,21.4h-6.6V43.8c0-1.9.4-3.9-.3-5.5s-2.2-3.9-3.9-4.7a5,5,0,0,0-6.7,1.9,14.5,14.5,0,0,0-2.3,6.6,63,63,0,0,0-.1,11.5c.2,3.1-1,4.3-4.1,3.9A12.8,12.8,0,0,0,233.4,57.3Z"/><path d="M375.1,57.4l-1-3.4c-3.9,4.4-8.6,5-13.7,3.6s-6.9-4.7-6.9-9.2,2.4-6.8,7.1-7.8a29.4,29.4,0,0,1,6.6-.5,42.2,42.2,0,0,1,6.1.7c1.3-3.8.4-7.2-2.1-8.4s-6.4-.1-8.6,2.6c-.7.8-2.4,1-3.7,1.2H355c-.2-4.3,1.1-7.1,4.9-7.9a41.8,41.8,0,0,1,13.2-.9c4.4.5,7.3,3.8,7.6,8.3.4,6.6.4,13.3.4,19.9,0,.6-1.1,1.6-1.8,1.7A25.5,25.5,0,0,1,375.1,57.4Zm-8-12.9c-1.1.2-2.3.1-3.1.7s-2.7,2.1-2.7,3.1a5.4,5.4,0,0,0,2.3,3.8c3.1,1.8,7.4.3,9.2-2.6s1.3-3.9-2.1-4.5Z"/><path d="M394.6,57.2h-7V27.7h6l.8,3.4c2.5-1.4,4.9-3.5,7.6-4.1,7-1.4,12.3,2.5,12.8,9.7s.1,13.5.1,20.2c-.3.2-.4.4-.6.4-6.4.6-6.3.6-6.4-5.7V39.2c0-2.8-1.1-5-3.9-5.8s-6.1,0-7.4,2.9a23,23,0,0,0-2,8.1C394.3,48.6,394.6,52.8,394.6,57.2Z"/><path d="M287.1,27.6H294V57.2h-6.5c-.2-1.2-.4-2.4-.8-4.6-2.7,4.7-6.5,5.6-11,5.1s-8.2-3.2-8.5-7.7c-.5-7.4-.1-14.8-.1-22.3h6.6v7c0,3.6,0,7.2.1,10.8s.7,5.3,3.9,6,6-.2,7.4-2.9a17.8,17.8,0,0,0,2-7.5C287.4,36.7,287.1,32.2,287.1,27.6Z"/><path d="M418.1,48.6c3.9,0,6.6-1.4,8.6,2.3s7.3,2.3,9.4.3,1.4-3.7-.9-4.7-4.9-1.8-7.3-2.9a21.9,21.9,0,0,1-5.5-2.8,7.1,7.1,0,0,1-1.3-10,2.4,2.4,0,0,1,.8-.9c4.2-4,14.8-4.5,19.1-.6,1.5,1.4,2.3,3.5,3.9,5.8-3.7.1-6.3,1.1-8.8-1.7s-4.9-1.7-7.4-.2-1.9,3.7.8,4.9,6.4,2.4,9.5,3.7a16.4,16.4,0,0,1,5,3.6c2.1,2.6,1.3,6.5-1.4,9.2-4.7,4.7-15.7,5.1-20.6.4C420.4,53.5,419.6,51.2,418.1,48.6Z"/><path d="M220.6,54c-2,1.3-3.6,2.7-5.6,3.5-4.7,1.6-10-.7-12.6-5.4a20.9,20.9,0,0,1-1.1-16.5c2.9-8.3,13.3-11,19.6-3.5V15.3h4.2V57.1C222.2,58.1,220.5,57.3,220.6,54Zm.2-11.4a56.5,56.5,0,0,0-2.1-7.5c-1-2.5-3.4-3.8-6.3-3.8s-5.2,1.1-6.4,3.7a16.6,16.6,0,0,0,.8,16c1.5,2.5,4,3.2,6.8,3a6,6,0,0,0,5.6-4.3A62.4,62.4,0,0,0,220.8,42.6Z"/></svg>