<svg xmlns="http://www.w3.org/2000/svg" xmlns:xlink="http://www.w3.org/1999/xlink" width="89.1" height="16.3" viewBox="0 0 89.1 16.3"><defs><clipPath id="a"><rect width="89.1" height="16.31" fill="none"/></clipPath></defs><g clip-path="url(#a)"><path d="M12.4.2V16.1H9V9.4H3.4v6.7H0V.2H3.4V6.5H9V.2Z"/><path d="M14.3,8.2c0-5.4,3.4-8.2,7.4-8.2s6.4,2.3,6.8,5.7H25.2a3.3,3.3,0,0,0-3.5-2.8c-1.9,0-4.2,1.8-4.2,5.3s1.8,5.1,4.2,5.1,3.4-1.1,3.6-2.8h3.2c-.3,3.5-3,5.8-6.8,5.8S14.3,13.5,14.3,8.2Z"/><path d="M45.6,3.1H40.9V.2H53.7V3.1H49v13H45.6Z"/><path d="M63.5,12.2A5.3,5.3,0,0,1,58,16.3a5.7,5.7,0,0,1-5.9-5.9c0-2.9,1.8-5.9,5.7-5.9a5.4,5.4,0,0,1,5.6,5.2c.1.1.1.2.1.4s-.1.7-.1,1H55.2A2.8,2.8,0,0,0,58,13.8c1.7,0,2.1-.6,2.4-1.6ZM55.2,9.1h5.1a2.5,2.5,0,0,0-2.5-2.3h0A2.4,2.4,0,0,0,55.2,9.1Z"/><path d="M65,10.4a5.7,5.7,0,0,1,5.9-5.9c3.5,0,5.4,1.8,5.5,4.5H73.2A2.1,2.1,0,0,0,71,7.2c-1.8,0-2.8,1.4-2.8,3.2s1.1,3.2,2.8,3.2a2.5,2.5,0,0,0,2.3-1.7h3.3a5.9,5.9,0,0,1-11.6-1Z"/><path d="M78.3.2h3.1V6.3a3.8,3.8,0,0,1,3.5-1.8c2.6,0,4.2,1.9,4.2,4.5v7.1H86V9.7a2.3,2.3,0,0,0-2.1-2.4h-.1a2.3,2.3,0,0,0-2.4,2.3v6.5H78.3Z"/><path d="M34,13.1V.2H30.5V13.1a2.8,2.8,0,0,0,3.1,3h7.3v-3Z"/></g></svg>