<svg xmlns="http://www.w3.org/2000/svg" width="236" height="42.7" viewBox="0 0 236 42.7"><path d="M62.1,23.9c0-2.3.1-4.6,0-6.9s.5-1.7,1.6-1.6l4.1.5a3.1,3.1,0,0,0,1.3-.3,6.8,6.8,0,0,1,7.7.8,1.5,1.5,0,0,0,2,.2l.2-.2a8.2,8.2,0,0,1,6.4-1.5,6.8,6.8,0,0,1,5.9,6.3c.2,3.4.1,6.7.1,10.2,0,1-.5,1.4-1.5,1.4-4.8-.1-3.8.4-3.9-3.8-.1-1.9.1-3.8-.1-5.8a3.5,3.5,0,0,0-4-3.4c-2.2.4-2.5,1.2-2.5,2.9v8.4c0,1.2-.4,1.7-1.6,1.7-4.4-.1-3.6.4-3.7-3.6-.1-1.9,0-3.8-.1-5.8a3.6,3.6,0,0,0-3.3-3.7,2.9,2.9,0,0,0-3.2,2.7v8.8c0,1.2-.4,1.6-1.5,1.6-4.6-.1-3.8.4-3.9-3.7Z"/><path d="M134.4,18.8c.8-1.1,1.4-2.3,2.2-3.2a2.1,2.1,0,0,1,1.6-.8c7.4-.1,14.7,0,21.9,0,1.1-.1,1.5.5,1.5,1.4a1.7,1.7,0,0,0,0,1c.1,1.5-.5,2.1-2,2.1-4.7-.1-4.2-.6-4.2,4.2s.9,4.4,4.4,4.2c1.9-.1,1.8-.1,2.3,2.9s-.6,1.7-1.7,1.9a33.8,33.8,0,0,1-4.5.1c-3.2-.2-5.6-3.2-5.8-6.8a41.7,41.7,0,0,1,0-5c.1-1.7-.5-1.6-1.6-1.5H144a1.1,1.1,0,0,0-1.4,1,.3.3,0,0,0,0,.4v3.5c0,2.7,1,3.6,3.6,3.6.8,0,2.1-.2,2.3.1a11.3,11.3,0,0,1,.6,3.6c.1.2-.6.8-1,.8a23.6,23.6,0,0,1-5.3.3c-2.8-.2-5-2.8-5.3-5.8a44.7,44.7,0,0,1-.1-5.2c.1-1.6-.3-2.7-2.2-2.4h-.4Z"/><path d="M114.5,23.8c0,2.3-.1,4.8,0,7.2s-.4,1.5-1.4,1.5l-4.4-.6a2.8,2.8,0,0,0-1.5.4,8.7,8.7,0,0,1-11.4-4.8c-1.9-4.6,0-10,4.3-12a9.7,9.7,0,0,1,6.9-.3,9.6,9.6,0,0,0,2.4,0h4.3a1.7,1.7,0,0,1,.7,1.3C114.5,18.9,114.5,21.4,114.5,23.8Zm-5.4-.5c0-1.3.1-3-2-3.9a4.6,4.6,0,0,0-5.5,1.1,5,5,0,0,0-.5,6,4.7,4.7,0,0,0,5.4,1.8C108.6,27.7,109.1,26.9,109.1,23.3Z"/><path d="M193.4,27.4a6.8,6.8,0,0,1-5.6,5.1c-3.8.8-7.4.4-10.1-2.8s-2.8-6.3-1.4-9.8,4.4-5.2,8.1-5.3,6.5,1.2,8.3,4.3a15.5,15.5,0,0,1,1.2,4.7c.2,1.1-.3,1.7-1.6,1.6h-9.7a10.4,10.4,0,0,0-1.6.6,10.9,10.9,0,0,0,.8,1.5c1.1,1.4,3.5,2.1,4.9,1S190.9,27.6,193.4,27.4Zm-8.7-5.2h2.7c1.1,0,1.3-.5.9-1.4a4.5,4.5,0,0,0-3.4-2.2,4.3,4.3,0,0,0-3.8,2.3c-.4.9,0,1.3.9,1.3Z"/><path d="M50.4,33.1c-2.7-.4-5.2-.7-7-2.8A16.4,16.4,0,0,1,42,27h4.2c.3,0,.5.4.6.7a4.8,4.8,0,0,0,5.1,1c.4-.2,1.1-.8,1-1.2a2.1,2.1,0,0,0-1.1-1.3c-1.6-.5-3.2-.7-4.9-1.1s-4.4-2.1-4.4-4.7a5.1,5.1,0,0,1,4-5.5c2.9-.8,7.1-1,10,1.7.8.6,1,1.9,1.6,2.8a12.8,12.8,0,0,1-2.7.5,5.9,5.9,0,0,1-2.6-1,3.9,3.9,0,0,0-3.9-.7,2,2,0,0,0-1.2,1.5c-.1.4.6,1.1,1.1,1.3l2.9.7a22.2,22.2,0,0,1,3.7.9,4.4,4.4,0,0,1,3,4.1c.1,2.1-.6,3.9-2.4,4.7A52.2,52.2,0,0,1,50.4,33.1Z"/><path d="M124.8,17a25.4,25.4,0,0,1,3.8-1.6c1.7-.6,2.1-.3,2.1,1.4v1c.3,1.7-.4,2.5-2.2,2.7l-2.4.9a2.8,2.8,0,0,0-1.6,2.9c.1,2.3,0,4.5,0,6.9s-.4,1.6-1.6,1.6c-4.4-.1-3.7.4-3.7-3.6s0-8.1-.1-12.1c0-1.2.4-1.8,1.7-1.7h1.7C123.7,15.3,124.6,15.5,124.8,17Z"/><path d="M166.2,24c0-2.4.1-4.7,0-7.1s.4-1.5,1.5-1.5c4.5.1,3.8-.4,3.8,3.7s0,7.9,0,11.9c.1,1.3-.4,1.8-1.7,1.8-4.2-.1-3.5.4-3.6-3.5Z"/><path d="M168.8,11.8a3.1,3.1,0,0,1-3.2-3.1A3.5,3.5,0,0,1,169,5.6a3.2,3.2,0,0,1,3.2,3.2h0C172.1,10.7,170.8,11.8,168.8,11.8Z"/></svg>