<svg xmlns="http://www.w3.org/2000/svg" width="1898.8" height="446.4" viewBox="0 0 1898.8 446.4"><path d="M616.2,130.7l2.2.5,20.7,2.1c3.4.3,4.6,1.7,4.6,5.1.1,5.2.1,10.5,0,15.8-.1,3-1.2,4.2-4.2,4.2-7.1.1-14.2-.1-21.3.1a32,32,0,0,0-7.5.9c-4.9,1.1-7.5,4.2-7.6,9.2s-.1,12-.1,18c0,2.2,1.5,2.6,3.3,2.6h29.6c3.4.1,4.1.7,3.6,4.1s-1.3,7.4-1.9,11.1c-.4,1.7-.6,3.4-1,5-.7,3.6-1.7,4.4-5.3,4.4H606.9c-3.7,0-3.9.3-3.9,3.9V329.2a23.5,23.5,0,0,1-.1,2.6,3.9,3.9,0,0,1-4.2,3.7H575.4c-2.8,0-4-1.3-4-4.2v-113c0-4.3-.3-4.6-4.6-4.6h-13c-3.8-.1-5-1.1-5-4.9s-.1-10,0-15,1.1-4.6,4.6-4.7h13.9c3.3,0,4-.7,4-4.2.1-7.9-.2-16,.1-24s2.8-16,9.2-21.7,12.2-6.6,19.3-7.4c3.8-.5,7.6-.8,11.4-1.1Z"/><path d="M1426.9,330.4c-1.5.4-2-.3-2-1.8a39.7,39.7,0,0,0-.5-9.1,34.2,34.2,0,0,0-1.3,3.4c-.8,2.2-1.6,4.3-2.6,6.4-.1.5-.7,1.1-1.1,1.1s-1-.6-1.2-1.1c-1.1-2.6-2.1-5.2-3.1-7.7a3.1,3.1,0,0,0-1.3-1.9c0,3,.1,5.9-.1,8.8a3.4,3.4,0,0,1-.9,1.9c-.3-.5-1-1.2-1-1.8-.1-4.2-.1-8.4-.1-12.6,2.3-1,3.3-.2,3.9,1.8s2.3,5.9,3.6,9.5c1.3-3.5,2.6-6.2,3.5-9.1s1.8-3.1,4-2.5v14.7Z"/><path d="M1097.5,274.5h-39.7c-4.2,0-5.6,1.4-5.2,5.4a110.5,110.5,0,0,0,2.2,14.1c2,7.8,7.3,12.4,15.1,13.8a102.6,102.6,0,0,0,15.6,1.3c14.5.2,29,.1,43.4.1,4.8,0,5.8,1.1,5.8,5.9v14.1c0,3.3-1.1,4.7-4.4,5.1-22.4,2.9-45,3.9-67.5,1.6a64.3,64.3,0,0,1-17.4-4.3c-12-4.6-18.3-14.2-21.6-26.2-2.8-10.4-3.5-21.1-3.9-31.9-.5-16.2-.5-32.5,2.5-48.5a79.6,79.6,0,0,1,2.5-9.6c4.3-13.2,13.2-21.8,26.7-24.9a131.8,131.8,0,0,1,21.7-3,145.1,145.1,0,0,1,36.6,1.8c17.9,3.4,28.2,14.1,32.2,31.6,2.9,13.1,3.3,26.3,3.5,39.5a64.7,64.7,0,0,1-.2,8.8c-.2,2.9-1.6,4.4-4.6,4.9a27.3,27.3,0,0,1-5.7.4Zm-14.9-23.2H1108c3.7,0,5.3-1.5,5-5.1a127.1,127.1,0,0,0-1.9-15.1c-1.7-8.3-7-13.5-15.5-15.1a73.5,73.5,0,0,0-25.2.1c-8.8,1.6-14.4,6.9-16.2,15.6-.8,4.6-1.4,9.2-1.8,13.7s1,5.9,5.8,5.9Z"/><path d="M801.2,274H763.3a35.5,35.5,0,0,0-4.6.3c-2.5.2-4.3,2.1-3.9,4.5a132.9,132.9,0,0,0,2,13.9c2,9,7.9,14.2,17,15.6a87.7,87.7,0,0,0,11.4,1h46.5c4.2,0,5.3,1,5.3,5.3s.1,9.7,0,14.6c-.1,3.2-1.1,4.3-4.4,4.7a315.2,315.2,0,0,1-51.4,2.7,159.6,159.6,0,0,1-24.8-2.8c-16-3.1-25.6-13.2-29.7-28.8a122.5,122.5,0,0,1-3.5-26.9c-.4-10.6-.4-21.2,0-31.7s1.4-20.6,4.6-30.5c4.3-13.5,13.4-22.1,27.2-25.3a127.8,127.8,0,0,1,20.5-2.7c7.7-.4,15.5-.4,23.1-.1s15.5,1.5,22.8,4.3c10.2,3.8,16.9,10.9,20.7,20.9a77.4,77.4,0,0,1,4.8,23.2c.7,10.3.9,20.6,1.1,30.9.1,5.1-1.5,6.8-6.5,6.9H801.2Zm-15.6-22.4h25.6c3.3,0,5-1.5,4.7-4.9a140.8,140.8,0,0,0-1.9-15.9c-1.6-7.9-6.5-13-14.5-14.7a64.8,64.8,0,0,0-28.4.3c-7.5,1.8-12.3,6.6-14.1,14a128.1,128.1,0,0,0-2.2,15.3c-.4,4.2,1.4,5.9,5.6,5.9Z"/><path d="M1382.5,275.4v47.3c0,5.6-1.3,7.4-6.7,8.8-11.6,3.1-23.5,4.3-35.4,4.8s-26.3.4-39.5,0a67.3,67.3,0,0,1-16.5-2.9c-11.2-3.1-18.2-10.6-21.1-21.9a74.4,74.4,0,0,1-.7-33.2c2.8-14.5,12-22.8,26.1-26,8.1-1.9,16.4-2.2,24.6-2.2h31.2c4.9,0,5.9-1,5.9-6,0-2.8,0-5.6-.1-8.3-.3-11.4-5.3-17.5-16.5-19.5a95.1,95.1,0,0,0-15.1-1.2c-13.5-.2-27-.1-40.4-.1-4.6,0-5.8-1.1-5.8-5.8V195.4c0-3.5.7-4.3,3.9-4.9,22.9-3.7,45.8-5.1,68.7-1.5a72.4,72.4,0,0,1,16.6,5c12.4,5.3,18.8,15.2,20.3,28.4.3,3.2.5,6.4.5,9.7C1382.6,246.5,1382.5,260.9,1382.5,275.4Zm-55-2h-18.8c-8,.6-13.1,4-14.6,10.5a30.9,30.9,0,0,0-.7,9.1c.1,9.8,4.4,14.7,14,16,13.1,1.9,26.3.9,39.3-1.2,2.7-.5,3.6-1.8,3.7-4.7V278.3c-.1-3.7-1.4-4.9-4.9-4.9Z"/><path d="M698.3,233.7v96c0,4.8-.8,5.6-5.6,5.6H672c-4,0-5.2-1.2-5.2-5.3V137.8c0-4.5,1.1-5.5,5.6-5.5h21c3.9,0,5,1,5,4.9v96.5Z"/><path d="M1202.1,278.8v50.9c0,4.8-1.1,5.9-5.8,5.9h-21.2c-3.9,0-5.2-1.2-5.2-5.1,0-36.4-.1-72.9.1-109.3a48.1,48.1,0,0,1,1.2-10.7c2.7-12.2,11.1-18.8,22.8-21.4a67.1,67.1,0,0,1,12.6-1.8,176.6,176.6,0,0,1,38.4,2.2l3.1.8a4.6,4.6,0,0,1,3.5,4.8c.1,5.2.1,10.5,0,15.7-.1,3.2-1.2,4.3-4.4,4.3l-31.5.3h-1.8c-8.7,1.3-11.7,4.5-11.8,13.3,0,16.6.1,33.4,0,50Z"/><path d="M878,335.4c-4.5,0-9,.1-13.4-.1-1.6,0-3-.9-4.6-1.4.5-1.5.6-3.3,1.5-4.5q25.3-35.2,50.8-70.2c1-1.5,1-2.3-.1-3.7-14.9-20.5-29.7-41-44.7-61.5a21.4,21.4,0,0,1-1.3-1.9c-.8-1.5-.4-2.6,1.3-3a10.2,10.2,0,0,1,3-.3h26.8a7.1,7.1,0,0,1,6.6,3.3L947.7,252c2.7,3.8,2.8,7.1,0,11l-20.4,27.7c-9.5,13.3-19,26.5-28.4,39.9-2.5,3.6-5.3,5.2-9.6,4.9S881.8,335.4,878,335.4Z"/><path d="M989.6,335.4c-4.6,0-9.2-.1-13.8.1a5.8,5.8,0,0,1-5.3-2.6l-25.2-34.6a2.7,2.7,0,0,1,.1-3.7l15-20.5c2-2.6,4.2-2.6,6.2.1,13.4,18.5,26.9,37.1,40.3,55.8.7,1,1.3,2.9.9,3.9s-2.4,1.4-3.7,1.4C999.2,335.6,994.4,335.4,989.6,335.4Z"/><path d="M983.8,188.5c5,0,9.9-.1,14.8.1a4.6,4.6,0,0,1,3.2,1.2c.4.8-.1,2.5-.7,3.3-11.5,16.1-23.2,32.2-34.9,48.2-1.7,2.4-4.1,2.3-5.8-.1-5.1-6.8-10-13.7-15.1-20.5a2.7,2.7,0,0,1,0-3.7l19-26.1a5.2,5.2,0,0,1,4.8-2.3Z"/><path d="M1402.9,317.4a11.3,11.3,0,0,1-3.2-.1c-.5,0-.8-.5-1.2-.9s.7-.7,1-.8h8.6c.3,0,.7.5,1.2.7s-1,1-1.4,1c-3-.5-3.4,1.1-3.1,3.6s.1,5.4,0,8.1a4.2,4.2,0,0,1-.9,1.4c-.4-.4-.9-.9-.9-1.4C1402.9,325.3,1402.9,321.5,1402.9,317.4Z"/></svg>