<svg xmlns="http://www.w3.org/2000/svg" width="4398.6" height="1001" viewBox="0 0 4398.6 1001"><path d="M2472.4,462.9l.6-.2c.4.9.8,1.8,1.1,2.7,1.7,4.8,3.6,9.5,5,14.3.7,2,1.5,2.7,3.9,2.7h211.6a3.3,3.3,0,0,0,3.8-2.7c1.7-4.7,3.5-9.4,5.3-14a18.9,18.9,0,0,0,1.1-2.5h.7v18.9h118.3V443.8H2610.7c-3,0-6.9-1-8.8.6s-2.6,5.3-3.6,8.2c-2.9,7.7-5.7,15.4-8.7,23.8l-1.5-4c-3.1-8.5-6.3-16.9-9.2-25.5-.8-2.4-2-3.2-4.6-3.2H2354.1v38.4h118.3ZM2243.9,668.7H1808.6V707h416.2c4.6,0,7.1-1.8,9.1-5.5C2239.1,691.3,2241.5,680.2,2243.9,668.7ZM1808.5,332.3h435.3c-.4-2.2-.7-4.2-1.2-6.2-2.4-9.9-4.8-19.8-10.2-28.7a5.9,5.9,0,0,0-5.9-3.3h-418Zm389.1-74.7.4-.8c-4.8-3.6-9.3-7.3-14.2-10.8-25.4-17.6-53.1-26.9-84.4-26.8-95.6.5-191.2.1-286.9.1h-3.9v38.3ZM1887.2,482.4h301.1a10,10,0,0,0,2.9-1c10.8-8.9,20.6-18.5,28.3-30.1,1.4-2.2,2.5-4.7,3.9-7.2H1887.2Zm0,74.6h336.1c-1-1.8-1.6-3.4-2.5-4.8-7.4-12.4-17.6-22.4-28.7-31.6a8.5,8.5,0,0,0-5.1-1.8H1887.2ZM1497.8,706.8h273.6V668.7H1497.8Zm271.4-374.4v-38H1495.8v38Zm.2-112.9H1495.8v38h273.6ZM2537,332.4l-.9-3.1c-3.5-10.6-7.3-21.3-10.7-32-.8-2.4-2-3.2-4.6-3.2H2275.4v38.2Zm363.4,0V294.2H2654.9c-1.7-.2-2.5.4-3,2.1-1.3,4.3-2.9,8.4-4.2,12.6-2.7,7.8-5.2,15.5-7.9,23.5Zm-625-74.8h235.7a23.3,23.3,0,0,0-1-3.2c-3.9-10.6-7.9-21.2-11.5-32-.9-2.5-2.1-3.2-4.6-3.1H2275.4Zm625.1-38.3H2684.7c-2.9,0-4.6.7-5.5,3.7a78,78,0,0,1-3.4,9.6c-3,8.3-6,16.6-9.1,24.9h233.8ZM2824,369.1H2629.6c-2.1,0-3.1.6-3.9,2.7-3.8,11-7.9,22-11.9,33.1a19.7,19.7,0,0,0-.7,2.6H2824Zm-260,38.2c-.4-1.1-.6-2-.9-2.9-3.9-10.8-7.9-21.6-11.7-32.4-.9-2.5-2.1-3-4.6-3H2354.1v38.3ZM2277.5,706.8h194.7V668.7H2277.5Zm216.7-187.9c4.5,12.1,8.9,23.9,13.1,35.5.8,2.3,2,3,4.4,3q78.2-.3,156.6,0c2.2,0,3.3-.7,4.1-2.9,3.7-11,7.7-21.8,11.6-32.8l.8-2.8Zm-373-149.7v38.3h114.9c2.9,0,4.2-.9,4.8-3.6,1.3-5.2,3-10.5,4-15.8s1.8-12.5,2.7-19Zm0,262.6h126a39.5,39.5,0,0,0-.3-5.9c-2-9.7-4.2-19.2-6.1-28.9-.5-2.7-2-3.5-4.6-3.5H2124.6l-3.4.2Zm536.9-38H2521.5a11,11,0,0,0,.2,1.8c4.2,11.5,8.3,23.1,12.8,34.7a3.7,3.7,0,0,0,3,1.7h104.2a3,3,0,0,0,3.4-2.4c3.6-10.1,7.2-20.2,10.9-30.2l2.1-5.7ZM1574.5,482.2h118.2V444.1H1574.5Zm118.3,36.7H1574.6v38.3h118.2Zm1131.2.2H2705.7V557H2824Zm-469.9-.2V557h118.2V518.9ZM1692.8,369.2H1574.6v38.1h118.2ZM1574.5,632h118.3V593.8H1574.5Zm1249.4-38.1H2705.7v38h118.2ZM2005.5,369.2H1887.3v38.1h118.2ZM1887.3,631.9h118.1V593.8H1887.3Zm585,0V593.8H2354.1v38.1Zm158.9,36.8h-82.7c0,.6-.1.9,0,1.1,4.5,11.9,8.8,23.7,13.3,35.6a3.8,3.8,0,0,0,2.9,1.5h50.9a2.9,2.9,0,0,0,3.2-2.2c2.1-6.4,4.3-12.9,6.6-19.3Z" fill="#fff"/><path d="M1808.4,781.8V743.6h390l-6,5.1c-20.1,15.8-42.4,27.1-67.9,31.5l-11,1.6Z"/><path d="M1497.5,781.8l.2-34.2v-3.9h274v34.7c0,1.1.2,2.3.3,3.4Z"/><path d="M2705.2,781.8c.1-4.7.2-9.3.2-14.1.1-7.8,0-15.8,0-24l2.8-.3h194.6v38.3Z"/><path d="M2902.8,707H2705.7V668.7l3-.2H2900l2.8.2Z"/><path d="M2277.3,781.8V743.7h195v38.1Z"/><path d="M2588.7,781.8l-12.4-35.1-1-3.2H2605l-13.7,38.3Z"/><path d="M2472.4,462.9v19.3H2354.1V443.8h220.2c2.6,0,3.8.8,4.6,3.1,2.9,8.7,6.1,17.1,9.2,25.6l1.5,3.9c3-8.4,5.8-16.1,8.7-23.7,1-2.9,1.5-6.8,3.6-8.3s5.8-.4,8.8-.4h213.1v38.2H2705.5V463.3h-.7a18.9,18.9,0,0,1-1.1,2.5c-1.8,4.6-3.6,9.3-5.3,14a3.3,3.3,0,0,1-3.8,2.7H2483c-2.4,0-3.2-.7-3.9-2.7-1.4-4.8-3.3-9.5-5-14.2a23.3,23.3,0,0,0-1.1-2.8Z"/><path d="M2243.9,668.7c-2.4,11.5-4.8,22.6-10,32.9-2,3.8-4.5,5.5-9.1,5.5q-206-.3-412-.1h-4.2V668.7Z"/><path d="M1808.5,332.3V294.2h418a5.9,5.9,0,0,1,5.9,3.2c5.4,9,7.8,18.8,10.2,28.8.5,2,.8,3.9,1.2,6.2Z"/><path d="M2197.6,257.6h-389V219.3h3.9c95.7,0,191.3.4,286.9-.1,31.3-.1,59,9.2,84.4,26.8,4.9,3.5,9.4,7.2,14.2,10.8Z"/><path d="M1887.2,482.4V444.1h336.2c-1.4,2.5-2.5,5-3.9,7.2-7.7,11.6-17.5,21.2-28.3,30.1a10,10,0,0,1-2.9,1Z"/><path d="M1887.2,557V518.8H2187a7.8,7.8,0,0,1,5.1,1.8c11.1,9.1,21.3,19.1,28.7,31.6.9,1.3,1.5,2.9,2.5,4.7Z"/><path d="M1497.8,706.8V668.7h273.6v38.1Z"/><path d="M1769.2,332.4H1495.8v-38h273.4Z"/><path d="M1769.4,219.5v38H1495.8v-38Z"/><path d="M2537,332.4H2275.4V294.2h245.4c2.6,0,3.8.7,4.6,3.2,3.4,10.6,7.2,21.4,10.7,32Z"/><path d="M2900.4,332.4H2639.8c2.7-8,5.2-15.7,7.9-23.5,1.3-4.2,2.9-8.3,4.2-12.6.5-1.7,1.3-2.3,3-2.1h245.5Z"/><path d="M2275.4,257.6V219.3H2494c2.5-.1,3.7.6,4.6,3.1,3.6,10.8,7.6,21.4,11.5,32a23.3,23.3,0,0,1,1,3.2Z"/><path d="M2900.5,219.3v38.2H2666.7c3.1-8.4,6.1-16.7,9.1-25a67.4,67.4,0,0,0,3.4-9.5c.9-3.3,2.6-3.8,5.5-3.8q105.8.3,211.6.1Z"/><path d="M2824,369.1v38.2H2613.1a26.8,26.8,0,0,1,.7-2.7c4-10.9,8.1-21.9,11.9-33,.8-2.1,1.8-2.6,3.9-2.6H2824Z"/><path d="M2564,407.3H2354.1V369h192.7c2.5,0,3.7.5,4.6,3.1,3.8,10.8,7.8,21.6,11.7,32.3C2563.4,405.3,2563.6,406.2,2564,407.3Z"/><path d="M2277.5,706.8V668.7h194.7v38.1Z"/><path d="M2494.2,518.9h190.6l-.8,2.8c-3.9,11-7.9,21.8-11.6,32.8-.8,2.2-1.9,2.9-4.1,2.9q-78.3-.3-156.6,0c-2.4,0-3.6-.7-4.4-3C2503.1,542.8,2498.7,531,2494.2,518.9Z"/><path d="M2121.2,369.2h126.4c-.9,6.5-1.6,12.8-2.7,19s-2.7,10.6-4,15.8c-.6,2.7-1.9,3.6-4.8,3.6H2121.2Z"/><path d="M2121.2,631.8v-38l3.4-.2h111.6c2.6,0,4.1.8,4.6,3.5,1.9,9.7,4.1,19.2,6.1,29a37.6,37.6,0,0,1,.3,5.8Z"/><path d="M2658.1,593.8l-2.1,5.7c-3.7,10-7.3,20.1-10.9,30.2a2.9,2.9,0,0,1-3.4,2.4H2537.5a3.5,3.5,0,0,1-3-1.7c-4.5-11.5-8.6-23.2-12.8-34.7a11,11,0,0,1-.2-1.8Z"/><path d="M1574.5,482.2V444.1h118.2v38.1Z"/><path d="M1692.8,518.9v38.3H1574.6V518.9Z"/><path d="M2824,519.1V557H2705.7V519.1Z"/><path d="M2354.1,518.9h118.2V557H2354.1Z"/><path d="M1692.8,369.2v38.1H1574.6V369.2Z"/><path d="M1574.5,632V593.8h118.3V632Z"/><path d="M2823.9,593.9v38H2705.7v-38Z"/><path d="M2005.5,369.2v38.1H1887.3V369.2Z"/><path d="M1887.3,631.9V593.8h118.1v38.1Z"/><path d="M2472.3,631.9H2354.1V593.8h118.2Z"/><path d="M2631.2,668.7c-2,5.8-4,11.3-5.8,16.8s-4.5,12.9-6.6,19.3a2.9,2.9,0,0,1-3.2,2.2h-50.9a3.8,3.8,0,0,1-2.9-1.5c-4.5-11.9-8.8-23.7-13.3-35.6-.1-.2,0-.5,0-1.1Z"/></svg>