<svg width="32" height="30" viewBox="0 0 32 30" fill="none" xmlns="http://www.w3.org/2000/svg">
<g clip-path="url(#clip0_2_31)">
<path d="M23.648 21.1522C25.8719 20.6373 27.8743 19.4381 29.3683 17.7265C30.8623 16.0149 31.7712 13.8786 31.965 11.6237C32.1588 9.36886 31.6274 7.11107 30.447 5.17377C29.2666 3.23647 27.4977 1.71907 25.3937 0.838925C24.0591 0.279582 22.6422 0 21.1825 0H0V21.4567H16.6792V18.3224H3.18115V12.2687H12.9518C17.0063 12.2687 20.3048 15.54 20.3048 19.5582C20.3031 20.9277 20.5744 22.2839 21.1032 23.5492C21.6319 24.8145 22.4076 25.9638 23.3858 26.9312C24.3515 27.888 25.4763 28.6476 26.7296 29.1727C28.0245 29.7185 29.4172 29.9999 30.8244 30H31.9993V26.8478H30.8244C27.3212 26.8478 24.3828 24.4066 23.648 21.1522ZM23.3525 17.9867C22.9742 15.5223 21.7167 13.274 19.8084 11.6498C17.9001 10.0256 15.4674 9.13309 12.9518 9.13433H3.18115V3.15224H21.1825C25.4011 3.15224 28.8333 6.54197 28.8333 10.7223C28.8333 14.1559 26.5174 17.0579 23.3525 17.9867Z" fill="black"/>
</g>
<defs>
<clipPath id="clip0_2_31">
<rect width="32" height="30" fill="white"/>
</clipPath>
</defs>
</svg>
